%TF.GenerationSoftware,KiCad,Pcbnew,9.0.2*%
%TF.CreationDate,2025-08-01T16:53:22-07:00*%
%TF.ProjectId,bitboy,62697462-6f79-42e6-9b69-6361645f7063,rev?*%
%TF.SameCoordinates,Original*%
%TF.FileFunction,Legend,Top*%
%TF.FilePolarity,Positive*%
%FSLAX46Y46*%
G04 Gerber Fmt 4.6, Leading zero omitted, Abs format (unit mm)*
G04 Created by KiCad (PCBNEW 9.0.2) date 2025-08-01 16:53:22*
%MOMM*%
%LPD*%
G01*
G04 APERTURE LIST*
%ADD10C,0.200000*%
%ADD11C,0.000000*%
%ADD12C,0.127000*%
G04 APERTURE END LIST*
D10*
G36*
X167015966Y-68218267D02*
G01*
X166807016Y-68299539D01*
X166707182Y-68167526D01*
X166480830Y-67872663D01*
X166483883Y-67858925D01*
X166507851Y-67851598D01*
X166543478Y-67835722D01*
X166578116Y-67815350D01*
X166605150Y-67793224D01*
X166627805Y-67766765D01*
X166643557Y-67739918D01*
X166653010Y-67709527D01*
X166656563Y-67668049D01*
X166651094Y-67628282D01*
X166635008Y-67593494D01*
X166609633Y-67565042D01*
X166575963Y-67544951D01*
X166544681Y-67534421D01*
X166512459Y-67528892D01*
X166448895Y-67525778D01*
X166420868Y-67525961D01*
X166407923Y-67525778D01*
X166406580Y-67692290D01*
X166406153Y-67845125D01*
X166406824Y-68088879D01*
X166408290Y-68280000D01*
X166182304Y-68280000D01*
X166183831Y-68121242D01*
X166184808Y-67811481D01*
X166184502Y-67655165D01*
X166182304Y-67365554D01*
X166264614Y-67363600D01*
X166381118Y-67361646D01*
X166557705Y-67367814D01*
X166631021Y-67378196D01*
X166698817Y-67396512D01*
X166759248Y-67422183D01*
X166805444Y-67453182D01*
X166839867Y-67489263D01*
X166865594Y-67531937D01*
X166880862Y-67577505D01*
X166886029Y-67627016D01*
X166880401Y-67683711D01*
X166864165Y-67733158D01*
X166837486Y-67776859D01*
X166786614Y-67833085D01*
X166738323Y-67870526D01*
X166738323Y-67874617D01*
X166890120Y-68057067D01*
X166965158Y-68147875D01*
X167015966Y-68218267D01*
G37*
G36*
X167477096Y-67570269D02*
G01*
X167537608Y-67585556D01*
X167591927Y-67611569D01*
X167637442Y-67647594D01*
X167667149Y-67682154D01*
X167691010Y-67721165D01*
X167709188Y-67765197D01*
X167725739Y-67837590D01*
X167731781Y-67928290D01*
X167257644Y-67928290D01*
X167265371Y-67978574D01*
X167287320Y-68025132D01*
X167309182Y-68052108D01*
X167338224Y-68076217D01*
X167375675Y-68097489D01*
X167418283Y-68113187D01*
X167463358Y-68123684D01*
X167510595Y-68129458D01*
X167564719Y-68131500D01*
X167640434Y-68129973D01*
X167687512Y-68127592D01*
X167666629Y-68283907D01*
X167618452Y-68286411D01*
X167540905Y-68287815D01*
X167461813Y-68284670D01*
X167391609Y-68275700D01*
X167329330Y-68261498D01*
X167269365Y-68240341D01*
X167217174Y-68213689D01*
X167171854Y-68181692D01*
X167122741Y-68131532D01*
X167083682Y-68070134D01*
X167065244Y-68024805D01*
X167054045Y-67976186D01*
X167050221Y-67923588D01*
X167056638Y-67846977D01*
X167059034Y-67838408D01*
X167247569Y-67838408D01*
X167535348Y-67838408D01*
X167527542Y-67795629D01*
X167513596Y-67761007D01*
X167493949Y-67733018D01*
X167468172Y-67711595D01*
X167436538Y-67698471D01*
X167397290Y-67693817D01*
X167358805Y-67698320D01*
X167326201Y-67711265D01*
X167298128Y-67732712D01*
X167275836Y-67760691D01*
X167258889Y-67795451D01*
X167247569Y-67838408D01*
X167059034Y-67838408D01*
X167074829Y-67781927D01*
X167106288Y-67722219D01*
X167154818Y-67662737D01*
X167205424Y-67621421D01*
X167268269Y-67590197D01*
X167336790Y-67571136D01*
X167405717Y-67564856D01*
X167477096Y-67570269D01*
G37*
G36*
X168351242Y-68072515D02*
G01*
X168347675Y-68108930D01*
X168337306Y-68141313D01*
X168320162Y-68170518D01*
X168285162Y-68208158D01*
X168241332Y-68238295D01*
X168187819Y-68261407D01*
X168118478Y-68278717D01*
X168045137Y-68288470D01*
X167971078Y-68291723D01*
X167881318Y-68287937D01*
X167827035Y-68283907D01*
X167810671Y-68135408D01*
X167862573Y-68139987D01*
X167941891Y-68143224D01*
X167993121Y-68140781D01*
X168047159Y-68130645D01*
X168080529Y-68117635D01*
X168096680Y-68104450D01*
X168105612Y-68087530D01*
X168108647Y-68067752D01*
X168105267Y-68050069D01*
X168095214Y-68035573D01*
X168052899Y-68006753D01*
X167992876Y-67976650D01*
X167926809Y-67942395D01*
X167884656Y-67910141D01*
X167856406Y-67874251D01*
X167839256Y-67832948D01*
X167833447Y-67786873D01*
X167840817Y-67737204D01*
X167862817Y-67692718D01*
X167898416Y-67654964D01*
X167952393Y-67621093D01*
X168004437Y-67601193D01*
X168068286Y-67587571D01*
X168134116Y-67579902D01*
X168193766Y-67576580D01*
X168275771Y-67576336D01*
X168319551Y-67576580D01*
X168337320Y-67728988D01*
X168298668Y-67727034D01*
X168227899Y-67725080D01*
X168172456Y-67728927D01*
X168125989Y-67739612D01*
X168102394Y-67750512D01*
X168087337Y-67762876D01*
X168077748Y-67777968D01*
X168074698Y-67793712D01*
X168078638Y-67812006D01*
X168090818Y-67827967D01*
X168132950Y-67855383D01*
X168196147Y-67886891D01*
X168255926Y-67917726D01*
X168298141Y-67949530D01*
X168327062Y-67983855D01*
X168344976Y-68023873D01*
X168351242Y-68072515D01*
G37*
G36*
X168865373Y-67570269D02*
G01*
X168925884Y-67585556D01*
X168980203Y-67611569D01*
X169025718Y-67647594D01*
X169055425Y-67682154D01*
X169079286Y-67721165D01*
X169097465Y-67765197D01*
X169114015Y-67837590D01*
X169120057Y-67928290D01*
X168645921Y-67928290D01*
X168653648Y-67978574D01*
X168675596Y-68025132D01*
X168697458Y-68052108D01*
X168726501Y-68076217D01*
X168763951Y-68097489D01*
X168806559Y-68113187D01*
X168851634Y-68123684D01*
X168898871Y-68129458D01*
X168952995Y-68131500D01*
X169028710Y-68129973D01*
X169075788Y-68127592D01*
X169054905Y-68283907D01*
X169006728Y-68286411D01*
X168929181Y-68287815D01*
X168850089Y-68284670D01*
X168779885Y-68275700D01*
X168717606Y-68261498D01*
X168657641Y-68240341D01*
X168605451Y-68213689D01*
X168560130Y-68181692D01*
X168511018Y-68131532D01*
X168471959Y-68070134D01*
X168453521Y-68024805D01*
X168442321Y-67976186D01*
X168438497Y-67923588D01*
X168444914Y-67846977D01*
X168447310Y-67838408D01*
X168635846Y-67838408D01*
X168923625Y-67838408D01*
X168915818Y-67795629D01*
X168901872Y-67761007D01*
X168882226Y-67733018D01*
X168856448Y-67711595D01*
X168824815Y-67698471D01*
X168785566Y-67693817D01*
X168747082Y-67698320D01*
X168714477Y-67711265D01*
X168686404Y-67732712D01*
X168664112Y-67760691D01*
X168647165Y-67795451D01*
X168635846Y-67838408D01*
X168447310Y-67838408D01*
X168463105Y-67781927D01*
X168494564Y-67722219D01*
X168543094Y-67662737D01*
X168593700Y-67621421D01*
X168656545Y-67590197D01*
X168725066Y-67571136D01*
X168793993Y-67564856D01*
X168865373Y-67570269D01*
G37*
G36*
X169732252Y-68139316D02*
G01*
X169712590Y-68283907D01*
X169680411Y-68286472D01*
X169621671Y-68287815D01*
X169536695Y-68283068D01*
X169468473Y-68270071D01*
X169414091Y-68250309D01*
X169371078Y-68224678D01*
X169334762Y-68190025D01*
X169308713Y-68148222D01*
X169292424Y-68097816D01*
X169286631Y-68036612D01*
X169287486Y-67888906D01*
X169288401Y-67732896D01*
X169174523Y-67732896D01*
X169174523Y-67584396D01*
X169293653Y-67584396D01*
X169293653Y-67400725D01*
X169495336Y-67400725D01*
X169495336Y-67584396D01*
X169729565Y-67584396D01*
X169729565Y-67732896D01*
X169495336Y-67732896D01*
X169494603Y-67793101D01*
X169493871Y-67866985D01*
X169493993Y-67922367D01*
X169494176Y-67990755D01*
X169499380Y-68038966D01*
X169513570Y-68075275D01*
X169535881Y-68102557D01*
X169566404Y-68120944D01*
X169615238Y-68134090D01*
X169689815Y-68139316D01*
X169715155Y-68139316D01*
X169732252Y-68139316D01*
G37*
G36*
X120551249Y-67941149D02*
G01*
X120546679Y-67989935D01*
X120533501Y-68032664D01*
X120511926Y-68070537D01*
X120483242Y-68103971D01*
X120447879Y-68133864D01*
X120405008Y-68160296D01*
X120341227Y-68186757D01*
X120258401Y-68206702D01*
X120170943Y-68217963D01*
X120082486Y-68221723D01*
X119967325Y-68218670D01*
X119900036Y-68213907D01*
X119879520Y-68026329D01*
X119942046Y-68030969D01*
X120039499Y-68034145D01*
X120119427Y-68028954D01*
X120199478Y-68014727D01*
X120238302Y-67999551D01*
X120259928Y-67983342D01*
X120272944Y-67962266D01*
X120277391Y-67936386D01*
X120272462Y-67905912D01*
X120258218Y-67881493D01*
X120234681Y-67860617D01*
X120192517Y-67835392D01*
X120114970Y-67799244D01*
X120031378Y-67755525D01*
X119989156Y-67725984D01*
X119957823Y-67695758D01*
X119935635Y-67664727D01*
X119914024Y-67611870D01*
X119906692Y-67552803D01*
X119912211Y-67502249D01*
X119928185Y-67458281D01*
X119953274Y-67419195D01*
X119985216Y-67386229D01*
X120023483Y-67357244D01*
X120071816Y-67331851D01*
X120132067Y-67310453D01*
X120194557Y-67296213D01*
X120267202Y-67287077D01*
X120351397Y-67283831D01*
X120454834Y-67285235D01*
X120509178Y-67287739D01*
X120532381Y-67479225D01*
X120478342Y-67474951D01*
X120386079Y-67471409D01*
X120312562Y-67476538D01*
X120245212Y-67491926D01*
X120217590Y-67503487D01*
X120197646Y-67518792D01*
X120184620Y-67538588D01*
X120180244Y-67562329D01*
X120184857Y-67586380D01*
X120199417Y-67609773D01*
X120223095Y-67630799D01*
X120266461Y-67657217D01*
X120339918Y-67692021D01*
X120422227Y-67734337D01*
X120463220Y-67762380D01*
X120495110Y-67792174D01*
X120519131Y-67823790D01*
X120536799Y-67859113D01*
X120547550Y-67897958D01*
X120551249Y-67941149D01*
G37*
G36*
X120952925Y-67516683D02*
G01*
X121044680Y-67525143D01*
X121128964Y-67543206D01*
X121211742Y-67574357D01*
X121267545Y-67605843D01*
X121312634Y-67643365D01*
X121348335Y-67687137D01*
X121374856Y-67736869D01*
X121390783Y-67790421D01*
X121396207Y-67848886D01*
X121390458Y-67917883D01*
X121374151Y-67976543D01*
X121348030Y-68026756D01*
X121312605Y-68071420D01*
X121269736Y-68110156D01*
X121218642Y-68143260D01*
X121151374Y-68172930D01*
X121073501Y-68194002D01*
X120993459Y-68206132D01*
X120920239Y-68210000D01*
X120922376Y-68522630D01*
X120712266Y-68522630D01*
X120713304Y-68331510D01*
X120714403Y-67981022D01*
X120714135Y-67902254D01*
X120911568Y-67902254D01*
X120911751Y-67993906D01*
X120911995Y-68073224D01*
X120957328Y-68070973D01*
X121004685Y-68064064D01*
X121049612Y-68052606D01*
X121081683Y-68039152D01*
X121127582Y-68007577D01*
X121159658Y-67970031D01*
X121173911Y-67940930D01*
X121183048Y-67905226D01*
X121186341Y-67861404D01*
X121180470Y-67813157D01*
X121163382Y-67771217D01*
X121136417Y-67735458D01*
X121101528Y-67708142D01*
X121064523Y-67690803D01*
X121023859Y-67679260D01*
X120980872Y-67672915D01*
X120933244Y-67670711D01*
X120923353Y-67670711D01*
X120912728Y-67670711D01*
X120912117Y-67738489D01*
X120911568Y-67902254D01*
X120714135Y-67902254D01*
X120713670Y-67765783D01*
X120712266Y-67514396D01*
X120772349Y-67513724D01*
X120824984Y-67513419D01*
X120952925Y-67516683D01*
G37*
G36*
X121818243Y-67508138D02*
G01*
X121900019Y-67522517D01*
X121949645Y-67539037D01*
X121992507Y-67560913D01*
X122029467Y-67588035D01*
X122058974Y-67617902D01*
X122082431Y-67651555D01*
X122100176Y-67689457D01*
X122116200Y-67754225D01*
X122122402Y-67846749D01*
X122122035Y-68104853D01*
X122121669Y-68210000D01*
X122032887Y-68216594D01*
X121867595Y-68221723D01*
X121808419Y-68219513D01*
X121736803Y-68212259D01*
X121666840Y-68199264D01*
X121614255Y-68181851D01*
X121557097Y-68149658D01*
X121515886Y-68110532D01*
X121496236Y-68079453D01*
X121484447Y-68045188D01*
X121480409Y-68006789D01*
X121482469Y-67987067D01*
X121690031Y-67987067D01*
X121695368Y-68021518D01*
X121710181Y-68046540D01*
X121732934Y-68065785D01*
X121762571Y-68080612D01*
X121815205Y-68092702D01*
X121878831Y-68096671D01*
X121899347Y-68096366D01*
X121924016Y-68095999D01*
X121924199Y-68055272D01*
X121924382Y-67975710D01*
X121924382Y-67925945D01*
X121923710Y-67866106D01*
X121853307Y-67873799D01*
X121804497Y-67883493D01*
X121763121Y-67897491D01*
X121737218Y-67911035D01*
X121712929Y-67930952D01*
X121695807Y-67956211D01*
X121690031Y-67987067D01*
X121482469Y-67987067D01*
X121484782Y-67964929D01*
X121497431Y-67928393D01*
X121518328Y-67896025D01*
X121546255Y-67868832D01*
X121584960Y-67843505D01*
X121636908Y-67820310D01*
X121694321Y-67802931D01*
X121770143Y-67788558D01*
X121913696Y-67772316D01*
X121907495Y-67737883D01*
X121894218Y-67711927D01*
X121872285Y-67691964D01*
X121835172Y-67675352D01*
X121774661Y-67662773D01*
X121695832Y-67658988D01*
X121624757Y-67660331D01*
X121561254Y-67662896D01*
X121579206Y-67506580D01*
X121622925Y-67504138D01*
X121707677Y-67502672D01*
X121818243Y-67508138D01*
G37*
G36*
X123369628Y-67552070D02*
G01*
X123280908Y-67779412D01*
X123208122Y-67978091D01*
X123127950Y-68210000D01*
X122943913Y-68210000D01*
X122899827Y-68074078D01*
X122801153Y-67784895D01*
X122797428Y-67784895D01*
X122698754Y-68060157D01*
X122645692Y-68210000D01*
X122461655Y-68210000D01*
X122385757Y-67987311D01*
X122225106Y-67556161D01*
X122433689Y-67498764D01*
X122576816Y-67957269D01*
X122580235Y-67957269D01*
X122728674Y-67523982D01*
X122874853Y-67523982D01*
X123015537Y-67956536D01*
X123018956Y-67956536D01*
X123163609Y-67498764D01*
X123369628Y-67552070D01*
G37*
G36*
X124159021Y-68210000D02*
G01*
X123949338Y-68210000D01*
X123950376Y-68105708D01*
X123951475Y-67974061D01*
X123951109Y-67877280D01*
X123950071Y-67782575D01*
X123943146Y-67724749D01*
X123928578Y-67691289D01*
X123912959Y-67676297D01*
X123890107Y-67666568D01*
X123857320Y-67662896D01*
X123822236Y-67667087D01*
X123777208Y-67681458D01*
X123732298Y-67701777D01*
X123690258Y-67725422D01*
X123689708Y-67801442D01*
X123689159Y-67922220D01*
X123690441Y-68098014D01*
X123691723Y-68210000D01*
X123481980Y-68210000D01*
X123483018Y-68114623D01*
X123484117Y-67882287D01*
X123483384Y-67703501D01*
X123481980Y-67514396D01*
X123687693Y-67514396D01*
X123687021Y-67580830D01*
X123687693Y-67582234D01*
X123754311Y-67547887D01*
X123825019Y-67519769D01*
X123895939Y-67500562D01*
X123952819Y-67494856D01*
X124013091Y-67501784D01*
X124062173Y-67521365D01*
X124102601Y-67553292D01*
X124132757Y-67595291D01*
X124151529Y-67646869D01*
X124158227Y-67710706D01*
X124157372Y-67848337D01*
X124156517Y-67940905D01*
X124157739Y-68096976D01*
X124159021Y-68210000D01*
G37*
G36*
X125857913Y-68180080D02*
G01*
X125639804Y-68221723D01*
X125525071Y-67613192D01*
X125521346Y-67606903D01*
X125440075Y-67798389D01*
X125313068Y-68115539D01*
X125142648Y-68115539D01*
X125078116Y-67950205D01*
X125013810Y-67795336D01*
X124934003Y-67608551D01*
X124930279Y-67608185D01*
X124884483Y-67830874D01*
X124809989Y-68221723D01*
X124598902Y-68181423D01*
X124722428Y-67604277D01*
X124782390Y-67307034D01*
X125001598Y-67283831D01*
X125077435Y-67478370D01*
X125231857Y-67862015D01*
X125237109Y-67862015D01*
X125386524Y-67494795D01*
X125471887Y-67283831D01*
X125695369Y-67302943D01*
X125744890Y-67580891D01*
X125857913Y-68180080D01*
G37*
G36*
X126387271Y-67500849D02*
G01*
X126454354Y-67518121D01*
X126515794Y-67547526D01*
X126571163Y-67589867D01*
X126606154Y-67627873D01*
X126634230Y-67668442D01*
X126655854Y-67711866D01*
X126676669Y-67782424D01*
X126683881Y-67862564D01*
X126676330Y-67940165D01*
X126653778Y-68013934D01*
X126630558Y-68059875D01*
X126600872Y-68101778D01*
X126564324Y-68140024D01*
X126511030Y-68179371D01*
X126450874Y-68207313D01*
X126385407Y-68223831D01*
X126312266Y-68229539D01*
X126240639Y-68223896D01*
X126174207Y-68207313D01*
X126112919Y-68179440D01*
X126059474Y-68140696D01*
X126024249Y-68104245D01*
X125994828Y-68062955D01*
X125970997Y-68016315D01*
X125953781Y-67966747D01*
X125943416Y-67915188D01*
X125939918Y-67861160D01*
X126148318Y-67861160D01*
X126152092Y-67912788D01*
X126162972Y-67958735D01*
X126182658Y-68000190D01*
X126212493Y-68035854D01*
X126233304Y-68052367D01*
X126257616Y-68064064D01*
X126284116Y-68070910D01*
X126312266Y-68073224D01*
X126341750Y-68070499D01*
X126369968Y-68062355D01*
X126395789Y-68049019D01*
X126417412Y-68031092D01*
X126441844Y-67998204D01*
X126460460Y-67957025D01*
X126471709Y-67912080D01*
X126475481Y-67865251D01*
X126471830Y-67817363D01*
X126460765Y-67769446D01*
X126441334Y-67725366D01*
X126413321Y-67689884D01*
X126392467Y-67673279D01*
X126367526Y-67661064D01*
X126340427Y-67653650D01*
X126312266Y-67651172D01*
X126279512Y-67653973D01*
X126253159Y-67661735D01*
X126229340Y-67675242D01*
X126204982Y-67696723D01*
X126181379Y-67728046D01*
X126162972Y-67770118D01*
X126151937Y-67815932D01*
X126148318Y-67861160D01*
X125939918Y-67861160D01*
X125946782Y-67783038D01*
X125966540Y-67714553D01*
X126000100Y-67652255D01*
X126049216Y-67594630D01*
X126103824Y-67551483D01*
X126167063Y-67520136D01*
X126236200Y-67501286D01*
X126311533Y-67494856D01*
X126387271Y-67500849D01*
G37*
G36*
X127342787Y-67666803D02*
G01*
X127217247Y-67711866D01*
X127036385Y-67791856D01*
X127035957Y-67853466D01*
X127035591Y-67944080D01*
X127036690Y-68104487D01*
X127037850Y-68210000D01*
X126828107Y-68210000D01*
X126829145Y-68107784D01*
X126830244Y-67889125D01*
X126829511Y-67724262D01*
X126828107Y-67514396D01*
X127033393Y-67514396D01*
X127032538Y-67616001D01*
X127033881Y-67616978D01*
X127100616Y-67577188D01*
X127173344Y-67539492D01*
X127244209Y-67507481D01*
X127289542Y-67490949D01*
X127342787Y-67666803D01*
G37*
G36*
X127784012Y-67500269D02*
G01*
X127844523Y-67515556D01*
X127898842Y-67541569D01*
X127944357Y-67577594D01*
X127974064Y-67612154D01*
X127997925Y-67651165D01*
X128016104Y-67695197D01*
X128032654Y-67767590D01*
X128038696Y-67858290D01*
X127564560Y-67858290D01*
X127572287Y-67908574D01*
X127594235Y-67955132D01*
X127616098Y-67982108D01*
X127645140Y-68006217D01*
X127682590Y-68027489D01*
X127725198Y-68043187D01*
X127770273Y-68053684D01*
X127817510Y-68059458D01*
X127871634Y-68061500D01*
X127947349Y-68059973D01*
X127994427Y-68057592D01*
X127973545Y-68213907D01*
X127925368Y-68216411D01*
X127847821Y-68217815D01*
X127768728Y-68214670D01*
X127698525Y-68205700D01*
X127636245Y-68191498D01*
X127576280Y-68170341D01*
X127524090Y-68143689D01*
X127478770Y-68111692D01*
X127429657Y-68061532D01*
X127390598Y-68000134D01*
X127372160Y-67954805D01*
X127360960Y-67906186D01*
X127357137Y-67853588D01*
X127363553Y-67776977D01*
X127365949Y-67768408D01*
X127554485Y-67768408D01*
X127842264Y-67768408D01*
X127834458Y-67725629D01*
X127820511Y-67691007D01*
X127800865Y-67663018D01*
X127775088Y-67641595D01*
X127743454Y-67628471D01*
X127704206Y-67623817D01*
X127665721Y-67628320D01*
X127633116Y-67641265D01*
X127605043Y-67662712D01*
X127582752Y-67690691D01*
X127565804Y-67725451D01*
X127554485Y-67768408D01*
X127365949Y-67768408D01*
X127381744Y-67711927D01*
X127413203Y-67652219D01*
X127461734Y-67592737D01*
X127512340Y-67551421D01*
X127575184Y-67520197D01*
X127643705Y-67501136D01*
X127712632Y-67494856D01*
X127784012Y-67500269D01*
G37*
G36*
X128522969Y-67295554D02*
G01*
X128516425Y-67563763D01*
X128508070Y-67711988D01*
X128488408Y-67893461D01*
X128314446Y-67893461D01*
X128294724Y-67711622D01*
X128286300Y-67565307D01*
X128279214Y-67295554D01*
X128522969Y-67295554D01*
G37*
G36*
X128516924Y-68210000D02*
G01*
X128285382Y-68210000D01*
X128285382Y-68014605D01*
X128516924Y-68014605D01*
X128516924Y-68210000D01*
G37*
D11*
%TO.C,G\u002A\u002A\u002A*%
G36*
X129354676Y-67943686D02*
G01*
X129346949Y-67949097D01*
X129341537Y-67941369D01*
X129349265Y-67935959D01*
X129354676Y-67943686D01*
G37*
G36*
X129374001Y-67987732D02*
G01*
X129366274Y-67993143D01*
X129360864Y-67985415D01*
X129368591Y-67980005D01*
X129374001Y-67987732D01*
G37*
G36*
X129637549Y-68183209D02*
G01*
X129629822Y-68188620D01*
X129624410Y-68180893D01*
X129632137Y-68175482D01*
X129637549Y-68183209D01*
G37*
G36*
X129651416Y-67874095D02*
G01*
X129643689Y-67879505D01*
X129638277Y-67871777D01*
X129646005Y-67866367D01*
X129651416Y-67874095D01*
G37*
G36*
X129714882Y-68589684D02*
G01*
X129707155Y-68595094D01*
X129701745Y-68587367D01*
X129709472Y-68581957D01*
X129714882Y-68589684D01*
G37*
G36*
X129762769Y-68394936D02*
G01*
X129755042Y-68400346D01*
X129749632Y-68392619D01*
X129757359Y-68387209D01*
X129762769Y-68394936D01*
G37*
G36*
X130027013Y-68048690D02*
G01*
X130019286Y-68054101D01*
X130013875Y-68046374D01*
X130021603Y-68040963D01*
X130027013Y-68048690D01*
G37*
G36*
X130135224Y-68203233D02*
G01*
X130127497Y-68208644D01*
X130122087Y-68200916D01*
X130129814Y-68195506D01*
X130135224Y-68203233D01*
G37*
G36*
X130226427Y-68300589D02*
G01*
X130218700Y-68306002D01*
X130213289Y-68298274D01*
X130221016Y-68292864D01*
X130226427Y-68300589D01*
G37*
G36*
X130781951Y-67531594D02*
G01*
X130774225Y-67537003D01*
X130768814Y-67529276D01*
X130776541Y-67523866D01*
X130781951Y-67531594D01*
G37*
G36*
X129333541Y-67808731D02*
G01*
X129331486Y-67829539D01*
X129328063Y-67833729D01*
X129322783Y-67828757D01*
X129324204Y-67815269D01*
X129329883Y-67801816D01*
X129333541Y-67808731D01*
G37*
G36*
X129347440Y-67729905D02*
G01*
X129345386Y-67750713D01*
X129341963Y-67754902D01*
X129336682Y-67749931D01*
X129338103Y-67736443D01*
X129343782Y-67722990D01*
X129347440Y-67729905D01*
G37*
G36*
X129349795Y-67857669D02*
G01*
X129351444Y-67859581D01*
X129348263Y-67867074D01*
X129341141Y-67866796D01*
X129331174Y-67860082D01*
X129333926Y-67856493D01*
X129349795Y-67857669D01*
G37*
G36*
X129574783Y-67898962D02*
G01*
X129573607Y-67914831D01*
X129571695Y-67916479D01*
X129564204Y-67913299D01*
X129564481Y-67906177D01*
X129571195Y-67896210D01*
X129574783Y-67898962D01*
G37*
G36*
X129717746Y-68613402D02*
G01*
X129719395Y-68615314D01*
X129716215Y-68622806D01*
X129709092Y-68622528D01*
X129699126Y-68615814D01*
X129701878Y-68612225D01*
X129717746Y-68613402D01*
G37*
G36*
X129973511Y-68558244D02*
G01*
X129971457Y-68579052D01*
X129968033Y-68583241D01*
X129962753Y-68578270D01*
X129964174Y-68564780D01*
X129969854Y-68551328D01*
X129973511Y-68558244D01*
G37*
G36*
X130278032Y-68739287D02*
G01*
X130279681Y-68741200D01*
X130276500Y-68748692D01*
X130269378Y-68748414D01*
X130259412Y-68741699D01*
X130262163Y-68738112D01*
X130278032Y-68739287D01*
G37*
G36*
X130607773Y-67022886D02*
G01*
X130609421Y-67024798D01*
X130606241Y-67032291D01*
X130599119Y-67032012D01*
X130589152Y-67025299D01*
X130591905Y-67021710D01*
X130607773Y-67022886D01*
G37*
G36*
X130636490Y-67178579D02*
G01*
X130635314Y-67194448D01*
X130633401Y-67196096D01*
X130625909Y-67192915D01*
X130626188Y-67185793D01*
X130632901Y-67175827D01*
X130636490Y-67178579D01*
G37*
G36*
X130774819Y-67919295D02*
G01*
X130776468Y-67921207D01*
X130773288Y-67928698D01*
X130766166Y-67928420D01*
X130756199Y-67921706D01*
X130758951Y-67918117D01*
X130774819Y-67919295D01*
G37*
G36*
X130549830Y-67925550D02*
G01*
X130551262Y-67927552D01*
X130558601Y-67946607D01*
X130556077Y-67952691D01*
X130547000Y-67947026D01*
X130542610Y-67933610D01*
X130541316Y-67917556D01*
X130549830Y-67925550D01*
G37*
G36*
X129554325Y-67118710D02*
G01*
X129565319Y-67130957D01*
X129565146Y-67134164D01*
X129552901Y-67145158D01*
X129549692Y-67144986D01*
X129538699Y-67132738D01*
X129538871Y-67129530D01*
X129551118Y-67118538D01*
X129554325Y-67118710D01*
G37*
G36*
X129606398Y-68694421D02*
G01*
X129606507Y-68700525D01*
X129590547Y-68707000D01*
X129570163Y-68706769D01*
X129560010Y-68700179D01*
X129560071Y-68699427D01*
X129572120Y-68694437D01*
X129588465Y-68692151D01*
X129606398Y-68694421D01*
G37*
G36*
X129629814Y-68226192D02*
G01*
X129629440Y-68229191D01*
X129617112Y-68240043D01*
X129613210Y-68239877D01*
X129606784Y-68230444D01*
X129609733Y-68225717D01*
X129623749Y-68215265D01*
X129625963Y-68215033D01*
X129629814Y-68226192D01*
G37*
G36*
X129943616Y-68487781D02*
G01*
X129959301Y-68498120D01*
X129960230Y-68504257D01*
X129947330Y-68512882D01*
X129930863Y-68512625D01*
X129913589Y-68504365D01*
X129914249Y-68496149D01*
X129935389Y-68487412D01*
X129943616Y-68487781D01*
G37*
G36*
X130381186Y-66966494D02*
G01*
X130387614Y-66975925D01*
X130384663Y-66980652D01*
X130370648Y-66991103D01*
X130368433Y-66991337D01*
X130364583Y-66980177D01*
X130364957Y-66977178D01*
X130377284Y-66966325D01*
X130381186Y-66966494D01*
G37*
G36*
X130441826Y-67975632D02*
G01*
X130443150Y-67993379D01*
X130429989Y-68013698D01*
X130412241Y-68015021D01*
X130391922Y-68001859D01*
X130390600Y-67984112D01*
X130403761Y-67963793D01*
X130421507Y-67962470D01*
X130441826Y-67975632D01*
G37*
G36*
X129600077Y-67070640D02*
G01*
X129599530Y-67092815D01*
X129593042Y-67119244D01*
X129585104Y-67122379D01*
X129577766Y-67113811D01*
X129573180Y-67093140D01*
X129578227Y-67070023D01*
X129589515Y-67057676D01*
X129592184Y-67057654D01*
X129600077Y-67070640D01*
G37*
G36*
X130002102Y-66764189D02*
G01*
X130029066Y-66773937D01*
X130039974Y-66784413D01*
X130033200Y-66792813D01*
X130006965Y-66792131D01*
X130005589Y-66791896D01*
X129978242Y-66783220D01*
X129967668Y-66772044D01*
X129967718Y-66771673D01*
X129980693Y-66763688D01*
X130002102Y-66764189D01*
G37*
G36*
X130095467Y-66747653D02*
G01*
X130099474Y-66754266D01*
X130096905Y-66766323D01*
X130092439Y-66766572D01*
X130068857Y-66766914D01*
X130057413Y-66768618D01*
X130040063Y-66764301D01*
X130038948Y-66751816D01*
X130051980Y-66737650D01*
X130075124Y-66736435D01*
X130095467Y-66747653D01*
G37*
G36*
X130302686Y-68086092D02*
G01*
X130303684Y-68094089D01*
X130307020Y-68101728D01*
X130317201Y-68093086D01*
X130328750Y-68084986D01*
X130328469Y-68094903D01*
X130316844Y-68117192D01*
X130314849Y-68120224D01*
X130293670Y-68131866D01*
X130280202Y-68130054D01*
X130265175Y-68114342D01*
X130263579Y-68092511D01*
X130274062Y-68076235D01*
X130286672Y-68074157D01*
X130302686Y-68086092D01*
G37*
G36*
X130412361Y-68801787D02*
G01*
X130430450Y-68812653D01*
X130432381Y-68822689D01*
X130440554Y-68837036D01*
X130463179Y-68840086D01*
X130488385Y-68844613D01*
X130494544Y-68854268D01*
X130481036Y-68861601D01*
X130449550Y-68861142D01*
X130437798Y-68859387D01*
X130404910Y-68852133D01*
X130394560Y-68844507D01*
X130402183Y-68834105D01*
X130413485Y-68818563D01*
X130404957Y-68808572D01*
X130400200Y-68801651D01*
X130412361Y-68801787D01*
G37*
G36*
X130413292Y-67012499D02*
G01*
X130423257Y-67023363D01*
X130435860Y-67044874D01*
X130439617Y-67072937D01*
X130435183Y-67115767D01*
X130432082Y-67134258D01*
X130422503Y-67177384D01*
X130412237Y-67206125D01*
X130404402Y-67214417D01*
X130399492Y-67201228D01*
X130400234Y-67169239D01*
X130404998Y-67134213D01*
X130411354Y-67077541D01*
X130406311Y-67040996D01*
X130401213Y-67031306D01*
X130389755Y-67007900D01*
X130395479Y-67001021D01*
X130413292Y-67012499D01*
G37*
G36*
X130525460Y-66926347D02*
G01*
X130530083Y-66948723D01*
X130523549Y-66971392D01*
X130502173Y-66974278D01*
X130501468Y-66974155D01*
X130477221Y-66961073D01*
X130469662Y-66947643D01*
X130469469Y-66941223D01*
X130506758Y-66941223D01*
X130512168Y-66948952D01*
X130519895Y-66943539D01*
X130514485Y-66935813D01*
X130506758Y-66941223D01*
X130469469Y-66941223D01*
X130469270Y-66934612D01*
X130469038Y-66926882D01*
X130483239Y-66919178D01*
X130504023Y-66918323D01*
X130525460Y-66926347D01*
G37*
G36*
X130199094Y-67828436D02*
G01*
X130200470Y-67828673D01*
X130227816Y-67837348D01*
X130238391Y-67848524D01*
X130238342Y-67848897D01*
X130225689Y-67858848D01*
X130217282Y-67858730D01*
X130196047Y-67864905D01*
X130191395Y-67871097D01*
X130174952Y-67879787D01*
X130155433Y-67877360D01*
X130133918Y-67864716D01*
X130130047Y-67851708D01*
X130144886Y-67846358D01*
X130151406Y-67847114D01*
X130166127Y-67843142D01*
X130166085Y-67836155D01*
X130172858Y-67827756D01*
X130199094Y-67828436D01*
G37*
G36*
X129444465Y-67788406D02*
G01*
X129444096Y-67820649D01*
X129443858Y-67822022D01*
X129441423Y-67855730D01*
X129446194Y-67877377D01*
X129447401Y-67878758D01*
X129454788Y-67900616D01*
X129449786Y-67932372D01*
X129434590Y-67961580D01*
X129432344Y-67964154D01*
X129422668Y-67969506D01*
X129421519Y-67953312D01*
X129424371Y-67933718D01*
X129425242Y-67893357D01*
X129413454Y-67874316D01*
X129401523Y-67853608D01*
X129405786Y-67821759D01*
X129420009Y-67788925D01*
X129434670Y-67777819D01*
X129444465Y-67788406D01*
G37*
G36*
X129518173Y-67151020D02*
G01*
X129517626Y-67173197D01*
X129508775Y-67197093D01*
X129498697Y-67203723D01*
X129487976Y-67213742D01*
X129478629Y-67241374D01*
X129477451Y-67247390D01*
X129468792Y-67277200D01*
X129458000Y-67290961D01*
X129456205Y-67291055D01*
X129449559Y-67277975D01*
X129450225Y-67248810D01*
X129451176Y-67242757D01*
X129459835Y-67212945D01*
X129470629Y-67199185D01*
X129472421Y-67199091D01*
X129484280Y-67189590D01*
X129491350Y-67168564D01*
X129500201Y-67144667D01*
X129510279Y-67138036D01*
X129518173Y-67151020D01*
G37*
G36*
X129952186Y-66788858D02*
G01*
X129955480Y-66794190D01*
X129949007Y-66808443D01*
X129927978Y-66825030D01*
X129902862Y-66837019D01*
X129887980Y-66838889D01*
X129873605Y-66846667D01*
X129872675Y-66849737D01*
X129859790Y-66858471D01*
X129844083Y-66858241D01*
X129823261Y-66851316D01*
X129819131Y-66846100D01*
X129831737Y-66830917D01*
X129855830Y-66816081D01*
X129877465Y-66810011D01*
X129878686Y-66810158D01*
X129893042Y-66801733D01*
X129896238Y-66792933D01*
X129909206Y-66780150D01*
X129932416Y-66778887D01*
X129952186Y-66788858D01*
G37*
G36*
X129811841Y-66873898D02*
G01*
X129804910Y-66891177D01*
X129785959Y-66909707D01*
X129760324Y-66923099D01*
X129750346Y-66925450D01*
X129735769Y-66938545D01*
X129725443Y-66961507D01*
X129711409Y-66987421D01*
X129687729Y-67012608D01*
X129660059Y-67033529D01*
X129634060Y-67046646D01*
X129615390Y-67048422D01*
X129609709Y-67035321D01*
X129609954Y-67033696D01*
X129622650Y-67023916D01*
X129631977Y-67024033D01*
X129649841Y-67015408D01*
X129657475Y-66994664D01*
X129666326Y-66970767D01*
X129676404Y-66964137D01*
X129689018Y-66955014D01*
X129694174Y-66940177D01*
X129706164Y-66920226D01*
X129718514Y-66917376D01*
X129737328Y-66912867D01*
X129740703Y-66906775D01*
X129754584Y-66886243D01*
X129780158Y-66868928D01*
X129801415Y-66864264D01*
X129811841Y-66873898D01*
G37*
G36*
X129416793Y-67284106D02*
G01*
X129421256Y-67297498D01*
X129420034Y-67331407D01*
X129413359Y-67380331D01*
X129412557Y-67384954D01*
X129402171Y-67434314D01*
X129391658Y-67468141D01*
X129382677Y-67481186D01*
X129382044Y-67481170D01*
X129373163Y-67492133D01*
X129362763Y-67523880D01*
X129352707Y-67570728D01*
X129352691Y-67570817D01*
X129344992Y-67626010D01*
X129345744Y-67657151D01*
X129352241Y-67665560D01*
X129360698Y-67671050D01*
X129349460Y-67681326D01*
X129337046Y-67702184D01*
X129323722Y-67746188D01*
X129310538Y-67809879D01*
X129310531Y-67809922D01*
X129299694Y-67866730D01*
X129290579Y-67901450D01*
X129281620Y-67918472D01*
X129271245Y-67922182D01*
X129270438Y-67922059D01*
X129263736Y-67917373D01*
X129260651Y-67903942D01*
X129261489Y-67878259D01*
X129266552Y-67836818D01*
X129276146Y-67776110D01*
X129290113Y-67695244D01*
X129305006Y-67612541D01*
X129316677Y-67552795D01*
X129326042Y-67512610D01*
X129334014Y-67488585D01*
X129341506Y-67477322D01*
X129349200Y-67475378D01*
X129360505Y-67472050D01*
X129369896Y-67454474D01*
X129379161Y-67418066D01*
X129386281Y-67380321D01*
X129396665Y-67330960D01*
X129407179Y-67297134D01*
X129416160Y-67284089D01*
X129416793Y-67284106D01*
G37*
G36*
X130202425Y-66692647D02*
G01*
X130257117Y-66700920D01*
X130290730Y-66706713D01*
X130355320Y-66718682D01*
X130397547Y-66728259D01*
X130421480Y-66736748D01*
X130431182Y-66745449D01*
X130431772Y-66751901D01*
X130439988Y-66769876D01*
X130455511Y-66776407D01*
X130484957Y-66790811D01*
X130506321Y-66816336D01*
X130511160Y-66839436D01*
X130520531Y-66851996D01*
X130541522Y-66859303D01*
X130565419Y-66868154D01*
X130572050Y-66878233D01*
X130580635Y-66891764D01*
X130589440Y-66894844D01*
X130605577Y-66905515D01*
X130606664Y-66912395D01*
X130612686Y-66936437D01*
X130630795Y-66961455D01*
X130649176Y-66973109D01*
X130660895Y-66985582D01*
X130660770Y-66989666D01*
X130666792Y-67013707D01*
X130684901Y-67038725D01*
X130703281Y-67050379D01*
X130713890Y-67063206D01*
X130713883Y-67072568D01*
X130717894Y-67091302D01*
X130723545Y-67094591D01*
X130732280Y-67107477D01*
X130732050Y-67123183D01*
X130736493Y-67146030D01*
X130747124Y-67152934D01*
X130760960Y-67167148D01*
X130761039Y-67189253D01*
X130761183Y-67214734D01*
X130768385Y-67224412D01*
X130778164Y-67237108D01*
X130778048Y-67246436D01*
X130785492Y-67265707D01*
X130794279Y-67269616D01*
X130808242Y-67283679D01*
X130808706Y-67303035D01*
X130813379Y-67335677D01*
X130826362Y-67356550D01*
X130842699Y-67383955D01*
X130845104Y-67403909D01*
X130850402Y-67429595D01*
X130859283Y-67438733D01*
X130870860Y-67459965D01*
X130870043Y-67492942D01*
X130869994Y-67529706D01*
X130881456Y-67547540D01*
X130891060Y-67560139D01*
X130892468Y-67585269D01*
X130885764Y-67628679D01*
X130882857Y-67642928D01*
X130873953Y-67695811D01*
X130874240Y-67730361D01*
X130883142Y-67752464D01*
X130888484Y-67776618D01*
X130888007Y-67820592D01*
X130882726Y-67878459D01*
X130873658Y-67944298D01*
X130861817Y-68012182D01*
X130848220Y-68076188D01*
X130833883Y-68130391D01*
X130819822Y-68168865D01*
X130809035Y-68184646D01*
X130790263Y-68211097D01*
X130775845Y-68258401D01*
X130774032Y-68267918D01*
X130762905Y-68313267D01*
X130748898Y-68335566D01*
X130741172Y-68339044D01*
X130722490Y-68353951D01*
X130714836Y-68373165D01*
X130702568Y-68398461D01*
X130688738Y-68407239D01*
X130672708Y-68421361D01*
X130672101Y-68432733D01*
X130665091Y-68453360D01*
X130653774Y-68458556D01*
X130633197Y-68468671D01*
X130629045Y-68475596D01*
X130615453Y-68494946D01*
X130590220Y-68511757D01*
X130568580Y-68516702D01*
X130554224Y-68525127D01*
X130551029Y-68533927D01*
X130540358Y-68550064D01*
X130533478Y-68551151D01*
X130507738Y-68557693D01*
X130482882Y-68578589D01*
X130471529Y-68600675D01*
X130456955Y-68623902D01*
X130426749Y-68649271D01*
X130390583Y-68670460D01*
X130358132Y-68681145D01*
X130348514Y-68681090D01*
X130326426Y-68682959D01*
X130320374Y-68689676D01*
X130307773Y-68699817D01*
X130300361Y-68699693D01*
X130272591Y-68704772D01*
X130241328Y-68722646D01*
X130218403Y-68745587D01*
X130213817Y-68756226D01*
X130221232Y-68777915D01*
X130243812Y-68793334D01*
X130270041Y-68796167D01*
X130279286Y-68792146D01*
X130285960Y-68781746D01*
X130268148Y-68775289D01*
X130242916Y-68765245D01*
X130234284Y-68755926D01*
X130237720Y-68748854D01*
X130247713Y-68753039D01*
X130274395Y-68756798D01*
X130289276Y-68751779D01*
X130306303Y-68745515D01*
X130308206Y-68758609D01*
X130307917Y-68760324D01*
X130314603Y-68778338D01*
X130344467Y-68790016D01*
X130346625Y-68790477D01*
X130373445Y-68796639D01*
X130375463Y-68800096D01*
X130354570Y-68803033D01*
X130330721Y-68806520D01*
X130331327Y-68812292D01*
X130346740Y-68821138D01*
X130373627Y-68840804D01*
X130375653Y-68855405D01*
X130354469Y-68862816D01*
X130315402Y-68861392D01*
X130273777Y-68853398D01*
X130256694Y-68843221D01*
X130256777Y-68839306D01*
X130249464Y-68827322D01*
X130223562Y-68816836D01*
X130220056Y-68816019D01*
X130189453Y-68813070D01*
X130180729Y-68822888D01*
X130180951Y-68824380D01*
X130176478Y-68832948D01*
X130155382Y-68832841D01*
X130113646Y-68823942D01*
X130106971Y-68822256D01*
X130064445Y-68813365D01*
X130035860Y-68811293D01*
X130027376Y-68814873D01*
X130035392Y-68828585D01*
X130039103Y-68829725D01*
X130045529Y-68839157D01*
X130042579Y-68843884D01*
X130024610Y-68847879D01*
X129988519Y-68846087D01*
X129941415Y-68839855D01*
X129890405Y-68830528D01*
X129842595Y-68819453D01*
X129805095Y-68807978D01*
X129785009Y-68797448D01*
X129783465Y-68794809D01*
X129788945Y-68785598D01*
X129813204Y-68785722D01*
X129846845Y-68792064D01*
X129883412Y-68799639D01*
X129896568Y-68800402D01*
X129888784Y-68794017D01*
X129877578Y-68787918D01*
X129841324Y-68774832D01*
X129794739Y-68765222D01*
X129780280Y-68763549D01*
X129731477Y-68754218D01*
X129697490Y-68737864D01*
X129695300Y-68735961D01*
X129665730Y-68713335D01*
X129646973Y-68702733D01*
X129631707Y-68694834D01*
X129640723Y-68694040D01*
X129652226Y-68695349D01*
X129678207Y-68692892D01*
X129682835Y-68681776D01*
X129665657Y-68669927D01*
X129653844Y-68666970D01*
X129628636Y-68655461D01*
X129624474Y-68641474D01*
X129620463Y-68622740D01*
X129614812Y-68619450D01*
X129605032Y-68606754D01*
X129605149Y-68597428D01*
X129596523Y-68579564D01*
X129575779Y-68571929D01*
X129575088Y-68571673D01*
X129651018Y-68571673D01*
X129651018Y-68581469D01*
X129670758Y-68590249D01*
X129686482Y-68594929D01*
X129676391Y-68597180D01*
X129669264Y-68597782D01*
X129651073Y-68604636D01*
X129653200Y-68616355D01*
X129671625Y-68626884D01*
X129690809Y-68630238D01*
X129721891Y-68622916D01*
X129725502Y-68617454D01*
X130084262Y-68617454D01*
X130085098Y-68631257D01*
X130092273Y-68636296D01*
X130100913Y-68619983D01*
X130106299Y-68597743D01*
X130108148Y-68569525D01*
X130102907Y-68556510D01*
X130102786Y-68556485D01*
X130095355Y-68566558D01*
X130088215Y-68590957D01*
X130084262Y-68617454D01*
X129725502Y-68617454D01*
X129734822Y-68603359D01*
X129737913Y-68583374D01*
X129725336Y-68572682D01*
X129698569Y-68566487D01*
X129668413Y-68565359D01*
X129651018Y-68571673D01*
X129575088Y-68571673D01*
X129551883Y-68563077D01*
X129545270Y-68553027D01*
X129545252Y-68553000D01*
X129535750Y-68541141D01*
X129514724Y-68534070D01*
X129490889Y-68524902D01*
X129484363Y-68514204D01*
X129478340Y-68490161D01*
X129460231Y-68465145D01*
X129441850Y-68453491D01*
X129432355Y-68440480D01*
X129432408Y-68424733D01*
X129427194Y-68401964D01*
X129409116Y-68364683D01*
X129381545Y-68319544D01*
X129372114Y-68305732D01*
X129342391Y-68259551D01*
X129321169Y-68219265D01*
X129311819Y-68191534D01*
X129311820Y-68186732D01*
X129310083Y-68164414D01*
X129303315Y-68158140D01*
X129294640Y-68145247D01*
X129294883Y-68129137D01*
X129290777Y-68102364D01*
X129281215Y-68091411D01*
X129271424Y-68076000D01*
X129270701Y-68043906D01*
X129276494Y-68002954D01*
X129285625Y-67962133D01*
X129295442Y-67934913D01*
X129302321Y-67927681D01*
X129317373Y-67919176D01*
X129324556Y-67907896D01*
X129330474Y-67901359D01*
X129330146Y-67919427D01*
X129329771Y-67922362D01*
X129330383Y-67949530D01*
X129338063Y-67961076D01*
X129347843Y-67973772D01*
X129347727Y-67983098D01*
X129334138Y-67998662D01*
X129324545Y-67999330D01*
X129306681Y-68007956D01*
X129299047Y-68028700D01*
X129301242Y-68056324D01*
X129312961Y-68065019D01*
X129326798Y-68079234D01*
X129326877Y-68101337D01*
X129329072Y-68128962D01*
X129340793Y-68137656D01*
X129356457Y-68145843D01*
X129357205Y-68150711D01*
X129352772Y-68181368D01*
X129367477Y-68194087D01*
X129379539Y-68194398D01*
X129399826Y-68196554D01*
X129399034Y-68212165D01*
X129396942Y-68216979D01*
X129391252Y-68234357D01*
X129402670Y-68232213D01*
X129409659Y-68228464D01*
X129426500Y-68220989D01*
X129424493Y-68230632D01*
X129421150Y-68236489D01*
X129416226Y-68255069D01*
X129421205Y-68260205D01*
X129429499Y-68273050D01*
X129429161Y-68289499D01*
X129431014Y-68308556D01*
X129438959Y-68310746D01*
X129450693Y-68314772D01*
X129450806Y-68320390D01*
X129459416Y-68332078D01*
X129475332Y-68333615D01*
X129493755Y-68335312D01*
X129489467Y-68348359D01*
X129487417Y-68351099D01*
X129476402Y-68377890D01*
X129471211Y-68414639D01*
X129471211Y-68414644D01*
X129474406Y-68446463D01*
X129489509Y-68460923D01*
X129501522Y-68464013D01*
X129524662Y-68472930D01*
X129530559Y-68482679D01*
X129538307Y-68497198D01*
X129541380Y-68498134D01*
X129555242Y-68491357D01*
X129556460Y-68469102D01*
X129545351Y-68439209D01*
X129538548Y-68428303D01*
X129524688Y-68403737D01*
X129528850Y-68390922D01*
X129535609Y-68387354D01*
X129546748Y-68379889D01*
X129532634Y-68374884D01*
X129515909Y-68361661D01*
X129515606Y-68337008D01*
X129515377Y-68313921D01*
X129506965Y-68309191D01*
X129498567Y-68302418D01*
X129499245Y-68276182D01*
X129499482Y-68274806D01*
X129499413Y-68242183D01*
X129486861Y-68231143D01*
X129470724Y-68220472D01*
X129469639Y-68213592D01*
X129463616Y-68189551D01*
X129445506Y-68164532D01*
X129427125Y-68152879D01*
X129415406Y-68140405D01*
X129415531Y-68136322D01*
X129410407Y-68115020D01*
X129395482Y-68090511D01*
X129379380Y-68076764D01*
X129378650Y-68076602D01*
X129362730Y-68063826D01*
X129347523Y-68039540D01*
X129341654Y-68017712D01*
X129341769Y-68016881D01*
X129356036Y-68006322D01*
X129391159Y-68008739D01*
X129411775Y-68013721D01*
X129436011Y-68009065D01*
X129444131Y-68000667D01*
X129461423Y-67985368D01*
X129476191Y-67988954D01*
X129479101Y-68006263D01*
X129487373Y-68024232D01*
X129503435Y-68030874D01*
X129523869Y-68029770D01*
X129530536Y-68011643D01*
X129530732Y-68000244D01*
X129537713Y-67976117D01*
X129538602Y-67976117D01*
X129544013Y-67983844D01*
X129544036Y-67983828D01*
X129659158Y-67983828D01*
X129664569Y-67991555D01*
X129672296Y-67986145D01*
X129666886Y-67978418D01*
X129659158Y-67983828D01*
X129544036Y-67983828D01*
X129551740Y-67978433D01*
X129546330Y-67970706D01*
X129538602Y-67976117D01*
X129537713Y-67976117D01*
X129537756Y-67975967D01*
X129541487Y-67963079D01*
X129542007Y-67961284D01*
X129559331Y-67944329D01*
X129582662Y-67921924D01*
X129591915Y-67904240D01*
X129605648Y-67890034D01*
X129620890Y-67889031D01*
X129648372Y-67886129D01*
X129659232Y-67879122D01*
X129666765Y-67860395D01*
X129676196Y-67822078D01*
X129686655Y-67769779D01*
X129697275Y-67709105D01*
X129707187Y-67645661D01*
X129715524Y-67585056D01*
X129721418Y-67532896D01*
X129724000Y-67494791D01*
X129722403Y-67476347D01*
X129721697Y-67475592D01*
X129714226Y-67459974D01*
X129715577Y-67435181D01*
X129723527Y-67413810D01*
X129733652Y-67407706D01*
X129741545Y-67420691D01*
X129740998Y-67442867D01*
X129743352Y-67470799D01*
X129755689Y-67479322D01*
X129768127Y-67488126D01*
X129765661Y-67494723D01*
X129765845Y-67510242D01*
X129774300Y-67518015D01*
X129786726Y-67538749D01*
X129787263Y-67564607D01*
X129791041Y-67600375D01*
X129809544Y-67634357D01*
X129836094Y-67655380D01*
X129842584Y-67657199D01*
X129864177Y-67672273D01*
X129882405Y-67702287D01*
X129891089Y-67735650D01*
X129890548Y-67747088D01*
X129895374Y-67769753D01*
X129915885Y-67778493D01*
X129944960Y-67794048D01*
X129960134Y-67813387D01*
X129977420Y-67837418D01*
X129991245Y-67845965D01*
X130004262Y-67859165D01*
X130004576Y-67868635D01*
X130010339Y-67887005D01*
X130030511Y-67890893D01*
X130056142Y-67878720D01*
X130057128Y-67877901D01*
X130079005Y-67864730D01*
X130088487Y-67863111D01*
X130096841Y-67875581D01*
X130096541Y-67884851D01*
X130086362Y-67901083D01*
X130079928Y-67902240D01*
X130068070Y-67911743D01*
X130060999Y-67932768D01*
X130049490Y-67957975D01*
X130035502Y-67962138D01*
X130017521Y-67970261D01*
X130011162Y-67984938D01*
X130001896Y-68005316D01*
X129993391Y-68008897D01*
X129984657Y-67996011D01*
X129984887Y-67980306D01*
X129979554Y-67956824D01*
X129962617Y-67949287D01*
X129937079Y-67935292D01*
X129912104Y-67907907D01*
X129911067Y-67906331D01*
X129887896Y-67878928D01*
X129865212Y-67864427D01*
X129863996Y-67864165D01*
X129834387Y-67868588D01*
X129806882Y-67885902D01*
X129794936Y-67905207D01*
X129783283Y-67917080D01*
X129779567Y-67917010D01*
X129765150Y-67925961D01*
X129752645Y-67946128D01*
X129738166Y-67968933D01*
X129726897Y-67975454D01*
X129715498Y-67984827D01*
X129710450Y-68000236D01*
X129697042Y-68026041D01*
X129670516Y-68053653D01*
X129666626Y-68056715D01*
X129639677Y-68081571D01*
X129624688Y-68103796D01*
X129624013Y-68106319D01*
X129611699Y-68126994D01*
X129585850Y-68152365D01*
X129579848Y-68157101D01*
X129551345Y-68184031D01*
X129540565Y-68213337D01*
X129539699Y-68233239D01*
X129544932Y-68267143D01*
X129556993Y-68288556D01*
X129558233Y-68289406D01*
X129572512Y-68309230D01*
X129572997Y-68318829D01*
X129580835Y-68338756D01*
X129594782Y-68348920D01*
X129613920Y-68370450D01*
X129614996Y-68387930D01*
X129616725Y-68410921D01*
X129624110Y-68417897D01*
X129635888Y-68409153D01*
X129638233Y-68396681D01*
X129641897Y-68377432D01*
X129657305Y-68371422D01*
X129689032Y-68375161D01*
X129708386Y-68381821D01*
X129712527Y-68397529D01*
X129705761Y-68425521D01*
X129693915Y-68454773D01*
X129682236Y-68468377D01*
X129680586Y-68468494D01*
X129667303Y-68476286D01*
X129666823Y-68478132D01*
X129676771Y-68489251D01*
X129703908Y-68501441D01*
X129709794Y-68503308D01*
X129754830Y-68516783D01*
X129765947Y-68453733D01*
X129775346Y-68413757D01*
X129786575Y-68395914D01*
X129796771Y-68394158D01*
X129818148Y-68398914D01*
X129829671Y-68407762D01*
X129832954Y-68426770D01*
X129829614Y-68462003D01*
X129824425Y-68498043D01*
X129822472Y-68532027D01*
X129830454Y-68542459D01*
X129833863Y-68541613D01*
X129843724Y-68543796D01*
X129838323Y-68561920D01*
X129833240Y-68583720D01*
X129838155Y-68591100D01*
X129851002Y-68581657D01*
X129864967Y-68555887D01*
X129865224Y-68555235D01*
X129880536Y-68529430D01*
X129896795Y-68520168D01*
X129897046Y-68520207D01*
X129933433Y-68535730D01*
X129947964Y-68564113D01*
X129947242Y-68577920D01*
X129949436Y-68603633D01*
X129959873Y-68612562D01*
X129979672Y-68603489D01*
X129996123Y-68574718D01*
X129997527Y-68572263D01*
X130006783Y-68538327D01*
X130121216Y-68538327D01*
X130126914Y-68553499D01*
X130127546Y-68554078D01*
X130131648Y-68572013D01*
X130127855Y-68578776D01*
X130128830Y-68582837D01*
X130147181Y-68573807D01*
X130149026Y-68572698D01*
X130171375Y-68562981D01*
X130179350Y-68567537D01*
X130179297Y-68567877D01*
X130187889Y-68582562D01*
X130200101Y-68587191D01*
X130218917Y-68581214D01*
X130225200Y-68571816D01*
X130381794Y-68571816D01*
X130387204Y-68579544D01*
X130394932Y-68574133D01*
X130389521Y-68566406D01*
X130381794Y-68571816D01*
X130225200Y-68571816D01*
X130230918Y-68563262D01*
X130231549Y-68545324D01*
X130231587Y-68544250D01*
X130221377Y-68535722D01*
X130195738Y-68527839D01*
X130189448Y-68525572D01*
X130295126Y-68525572D01*
X130304670Y-68535910D01*
X130319581Y-68540528D01*
X130341710Y-68539962D01*
X130347676Y-68534838D01*
X130338129Y-68524501D01*
X130323221Y-68519883D01*
X130301092Y-68520447D01*
X130295126Y-68525572D01*
X130189448Y-68525572D01*
X130183672Y-68523490D01*
X130167726Y-68522701D01*
X130167676Y-68530779D01*
X130165423Y-68539358D01*
X130153966Y-68534538D01*
X130133148Y-68529851D01*
X130121216Y-68538327D01*
X130006783Y-68538327D01*
X130010854Y-68523400D01*
X130010864Y-68523344D01*
X130010872Y-68518870D01*
X130010914Y-68494893D01*
X130001316Y-68484982D01*
X129987336Y-68497135D01*
X129983365Y-68504950D01*
X129977586Y-68506980D01*
X129973978Y-68486801D01*
X129973376Y-68469323D01*
X129973355Y-68468835D01*
X129971762Y-68433084D01*
X129962995Y-68414908D01*
X129940459Y-68406190D01*
X129922216Y-68402731D01*
X129888927Y-68394426D01*
X129876003Y-68382383D01*
X129875977Y-68367486D01*
X129882801Y-68351684D01*
X129900386Y-68346792D01*
X129935971Y-68350977D01*
X129939078Y-68351520D01*
X129985134Y-68354919D01*
X130011317Y-68344716D01*
X130013289Y-68342545D01*
X130028671Y-68332005D01*
X130035583Y-68339704D01*
X130052280Y-68353684D01*
X130080768Y-68362957D01*
X130110373Y-68363483D01*
X130122897Y-68348983D01*
X130123776Y-68344987D01*
X130132934Y-68329149D01*
X130157205Y-68322331D01*
X130188828Y-68321762D01*
X130228773Y-68320063D01*
X130248629Y-68310898D01*
X130253754Y-68299255D01*
X130267437Y-68276792D01*
X130279037Y-68271103D01*
X130296984Y-68256263D01*
X130306078Y-68232985D01*
X130309678Y-68223274D01*
X130483890Y-68223274D01*
X130484872Y-68243020D01*
X130497252Y-68239335D01*
X130501580Y-68234901D01*
X130502908Y-68217739D01*
X130499398Y-68213399D01*
X130487470Y-68214239D01*
X130483890Y-68223274D01*
X130309678Y-68223274D01*
X130314189Y-68211103D01*
X130323785Y-68209389D01*
X130336162Y-68209816D01*
X130338152Y-68204733D01*
X130342865Y-68198407D01*
X130352384Y-68185631D01*
X130381389Y-68167162D01*
X130413828Y-68155433D01*
X130431697Y-68154364D01*
X130453030Y-68146635D01*
X130459398Y-68131705D01*
X130466080Y-68116053D01*
X130483303Y-68111067D01*
X130518234Y-68115005D01*
X130524063Y-68116015D01*
X130560890Y-68121219D01*
X130578724Y-68118158D01*
X130584576Y-68104576D01*
X130585112Y-68096301D01*
X130581270Y-68075571D01*
X130563520Y-68062186D01*
X130531002Y-68052116D01*
X130495490Y-68040599D01*
X130480878Y-68027294D01*
X130480440Y-68018099D01*
X130506523Y-68018099D01*
X130515182Y-68031515D01*
X130524687Y-68034849D01*
X130539408Y-68030877D01*
X130539366Y-68023890D01*
X130524798Y-68008292D01*
X130521200Y-68007142D01*
X130507425Y-68015044D01*
X130506523Y-68018099D01*
X130480440Y-68018099D01*
X130480225Y-68013596D01*
X130480312Y-68013477D01*
X130496131Y-67992333D01*
X130530132Y-67983181D01*
X130575829Y-67987673D01*
X130581937Y-67989240D01*
X130603847Y-67993314D01*
X130615286Y-67985646D01*
X130615708Y-67983950D01*
X130661736Y-67983950D01*
X130664193Y-68002139D01*
X130671123Y-68006484D01*
X130683419Y-67997166D01*
X130689674Y-67979276D01*
X130695134Y-67960446D01*
X130702029Y-67966528D01*
X130704348Y-67971704D01*
X130713045Y-67983601D01*
X130716319Y-67979460D01*
X130711603Y-67955853D01*
X130688393Y-67950264D01*
X130686425Y-67950608D01*
X130670240Y-67962778D01*
X130661736Y-67983950D01*
X130615708Y-67983950D01*
X130617642Y-67976175D01*
X130621624Y-67960175D01*
X130624207Y-67941579D01*
X130626981Y-67909772D01*
X130666067Y-67909772D01*
X130668618Y-67918934D01*
X130693284Y-67929787D01*
X130698716Y-67931812D01*
X130743959Y-67946131D01*
X130771461Y-67947126D01*
X130786917Y-67934239D01*
X130791830Y-67922647D01*
X130793265Y-67898928D01*
X130775637Y-67889451D01*
X130744079Y-67893764D01*
X130730227Y-67901763D01*
X130706689Y-67914632D01*
X130695618Y-67915773D01*
X130692730Y-67909677D01*
X130702322Y-67904146D01*
X130717420Y-67892380D01*
X130717289Y-67886028D01*
X130703034Y-67885627D01*
X130682910Y-67896162D01*
X130666067Y-67909772D01*
X130626981Y-67909772D01*
X130627337Y-67905692D01*
X130626483Y-67902792D01*
X130622347Y-67888751D01*
X130606418Y-67883559D01*
X130601409Y-67883288D01*
X130578880Y-67877290D01*
X130573587Y-67868223D01*
X130586540Y-67858507D01*
X130600322Y-67858539D01*
X130611458Y-67857961D01*
X130620774Y-67848949D01*
X130629984Y-67827253D01*
X130640806Y-67788629D01*
X130654955Y-67728829D01*
X130657808Y-67716281D01*
X130670664Y-67657316D01*
X130711676Y-67657316D01*
X130720212Y-67667268D01*
X130749483Y-67675379D01*
X130769306Y-67658986D01*
X130771533Y-67653935D01*
X130769910Y-67635361D01*
X130752540Y-67629218D01*
X130728331Y-67637732D01*
X130722976Y-67641792D01*
X130711676Y-67657316D01*
X130670664Y-67657316D01*
X130671635Y-67652861D01*
X130672141Y-67650345D01*
X130683211Y-67595252D01*
X130691137Y-67550698D01*
X130693584Y-67531946D01*
X130736992Y-67531946D01*
X130746195Y-67544305D01*
X130762578Y-67548495D01*
X130786472Y-67548328D01*
X130792725Y-67532261D01*
X130792438Y-67526636D01*
X130801046Y-67498992D01*
X130814208Y-67490249D01*
X130825898Y-67483313D01*
X130814755Y-67477471D01*
X130797080Y-67473714D01*
X130766918Y-67471764D01*
X130750902Y-67485276D01*
X130743211Y-67504442D01*
X130736992Y-67531946D01*
X130693584Y-67531946D01*
X130693889Y-67529610D01*
X130694443Y-67524443D01*
X130697570Y-67495280D01*
X130704277Y-67446175D01*
X130711326Y-67400611D01*
X130725894Y-67311744D01*
X130683380Y-67303178D01*
X130659903Y-67296583D01*
X130656941Y-67291400D01*
X130659037Y-67290794D01*
X130670987Y-67282208D01*
X130665162Y-67265852D01*
X130659806Y-67249608D01*
X130673027Y-67248236D01*
X130696632Y-67241443D01*
X130703973Y-67233374D01*
X130704837Y-67216096D01*
X130694941Y-67211462D01*
X130680521Y-67215596D01*
X130680673Y-67222493D01*
X130677998Y-67234526D01*
X130673450Y-67234765D01*
X130661514Y-67221379D01*
X130656085Y-67195632D01*
X130656431Y-67193123D01*
X130706172Y-67193123D01*
X130711582Y-67200850D01*
X130719309Y-67195440D01*
X130713899Y-67187713D01*
X130706172Y-67193123D01*
X130656431Y-67193123D01*
X130657613Y-67184562D01*
X130658883Y-67175353D01*
X130682212Y-67175353D01*
X130687623Y-67183079D01*
X130695350Y-67177669D01*
X130689939Y-67169941D01*
X130682212Y-67175353D01*
X130658883Y-67175353D01*
X130659415Y-67171498D01*
X130659508Y-67171349D01*
X130662478Y-67166640D01*
X130661516Y-67152023D01*
X130653612Y-67145061D01*
X130639576Y-67126475D01*
X130639314Y-67117414D01*
X130643764Y-67108093D01*
X130647050Y-67118354D01*
X130657235Y-67135824D01*
X130661593Y-67137852D01*
X130670025Y-67130012D01*
X130669277Y-67109325D01*
X130661177Y-67087245D01*
X130651870Y-67076945D01*
X130643291Y-67058254D01*
X130647510Y-67041373D01*
X130651014Y-67019334D01*
X130638127Y-67011799D01*
X130620944Y-67001437D01*
X130619371Y-66993977D01*
X130612831Y-66968243D01*
X130591946Y-66943387D01*
X130569878Y-66932034D01*
X130548988Y-66917375D01*
X130544734Y-66907280D01*
X130531271Y-66886904D01*
X130522346Y-66883014D01*
X130507118Y-66872531D01*
X130506361Y-66866650D01*
X130497294Y-66853935D01*
X130483178Y-66849016D01*
X130459039Y-66838431D01*
X130451781Y-66829712D01*
X130437145Y-66819451D01*
X130431959Y-66820451D01*
X130421402Y-66818919D01*
X130421826Y-66815498D01*
X130426293Y-66789600D01*
X130413504Y-66773588D01*
X130379181Y-66763054D01*
X130369178Y-66761184D01*
X130333460Y-66757576D01*
X130311147Y-66760449D01*
X130307741Y-66763896D01*
X130295414Y-66774749D01*
X130291512Y-66774581D01*
X130285086Y-66765149D01*
X130288035Y-66760422D01*
X130282438Y-66751491D01*
X130252910Y-66741659D01*
X130219965Y-66734874D01*
X130168071Y-66728632D01*
X130138338Y-66731870D01*
X130132697Y-66736418D01*
X130119691Y-66742894D01*
X130114339Y-66738100D01*
X130115070Y-66724203D01*
X130122198Y-66721425D01*
X130140156Y-66707539D01*
X130142937Y-66699843D01*
X130149378Y-66692298D01*
X130167860Y-66689837D01*
X130202425Y-66692647D01*
G37*
G36*
X140883070Y-52423672D02*
G01*
X140926140Y-52462676D01*
X140969776Y-52511367D01*
X140982238Y-52527617D01*
X140999982Y-52552930D01*
X141012428Y-52575703D01*
X141020516Y-52601947D01*
X141025184Y-52637668D01*
X141027372Y-52688875D01*
X141028021Y-52761578D01*
X141028062Y-52820646D01*
X141027899Y-52909846D01*
X141026783Y-52973794D01*
X141023776Y-53018496D01*
X141017937Y-53049963D01*
X141008327Y-53074203D01*
X140994007Y-53097224D01*
X140982238Y-53113675D01*
X140942201Y-53161782D01*
X140897107Y-53206096D01*
X140883070Y-53217620D01*
X140861297Y-53233303D01*
X140840067Y-53244332D01*
X140813602Y-53251524D01*
X140776123Y-53255699D01*
X140721853Y-53257675D01*
X140645012Y-53258271D01*
X140595892Y-53258308D01*
X140505662Y-53258485D01*
X140440553Y-53259632D01*
X140394428Y-53262673D01*
X140361146Y-53268531D01*
X140334569Y-53278132D01*
X140308558Y-53292398D01*
X140289303Y-53304448D01*
X140236207Y-53345231D01*
X140186139Y-53394957D01*
X140169012Y-53416209D01*
X140121477Y-53481829D01*
X140121477Y-54641631D01*
X140121477Y-55801433D01*
X140169012Y-55867053D01*
X140212060Y-55915596D01*
X140265899Y-55962409D01*
X140289303Y-55978813D01*
X140318188Y-55996563D01*
X140343696Y-56009053D01*
X140371967Y-56017208D01*
X140409140Y-56021953D01*
X140461353Y-56024210D01*
X140534747Y-56024903D01*
X140595892Y-56024954D01*
X140686301Y-56025165D01*
X140751227Y-56026343D01*
X140796448Y-56029307D01*
X140827742Y-56034876D01*
X140850889Y-56043868D01*
X140871666Y-56057103D01*
X140883070Y-56065641D01*
X140926140Y-56104645D01*
X140969776Y-56153336D01*
X140982238Y-56169586D01*
X140999982Y-56194899D01*
X141012428Y-56217673D01*
X141020516Y-56243916D01*
X141025184Y-56279637D01*
X141027372Y-56330845D01*
X141028021Y-56403547D01*
X141028062Y-56462615D01*
X141027899Y-56551816D01*
X141026783Y-56615763D01*
X141023776Y-56660466D01*
X141017937Y-56691933D01*
X141008327Y-56716172D01*
X140994007Y-56739193D01*
X140982238Y-56755644D01*
X140942201Y-56803751D01*
X140897107Y-56848066D01*
X140883070Y-56859589D01*
X140829726Y-56900277D01*
X139674245Y-56900277D01*
X138518765Y-56900277D01*
X138461111Y-56861100D01*
X138417044Y-56823774D01*
X138372346Y-56774743D01*
X138355882Y-56752776D01*
X138337157Y-56724738D01*
X138324131Y-56700137D01*
X138315769Y-56672665D01*
X138311038Y-56636019D01*
X138308903Y-56583891D01*
X138308331Y-56509976D01*
X138308308Y-56462615D01*
X138308485Y-56375370D01*
X138309705Y-56313081D01*
X138313002Y-56269441D01*
X138319410Y-56238147D01*
X138329963Y-56212891D01*
X138345695Y-56187369D01*
X138355882Y-56172455D01*
X138395933Y-56123189D01*
X138442139Y-56078642D01*
X138461111Y-56064131D01*
X138484739Y-56049087D01*
X138507944Y-56038484D01*
X138536557Y-56031547D01*
X138576412Y-56027501D01*
X138633342Y-56025572D01*
X138713181Y-56024986D01*
X138756198Y-56024954D01*
X138993631Y-56024954D01*
X139060826Y-55973703D01*
X139112580Y-55928344D01*
X139163349Y-55874822D01*
X139179272Y-55855257D01*
X139230523Y-55788062D01*
X139230523Y-54643893D01*
X139230590Y-54425405D01*
X139230672Y-54235937D01*
X139230594Y-54073245D01*
X139230179Y-53935088D01*
X139229252Y-53819225D01*
X139227636Y-53723414D01*
X139225155Y-53645413D01*
X139221633Y-53582979D01*
X139216894Y-53533871D01*
X139210762Y-53495847D01*
X139203060Y-53466666D01*
X139193613Y-53444085D01*
X139182245Y-53425862D01*
X139168778Y-53409756D01*
X139153038Y-53393525D01*
X139134848Y-53374927D01*
X139130469Y-53370261D01*
X139089002Y-53329234D01*
X139048302Y-53299500D01*
X139002279Y-53279304D01*
X138944848Y-53266889D01*
X138869919Y-53260499D01*
X138771407Y-53258377D01*
X138742405Y-53258308D01*
X138653779Y-53258019D01*
X138590312Y-53256587D01*
X138545902Y-53253163D01*
X138514448Y-53246895D01*
X138489850Y-53236935D01*
X138466005Y-53222433D01*
X138461111Y-53219131D01*
X138417044Y-53181805D01*
X138372346Y-53132773D01*
X138355882Y-53110807D01*
X138337157Y-53082769D01*
X138324131Y-53058168D01*
X138315769Y-53030696D01*
X138311038Y-52994049D01*
X138308903Y-52941921D01*
X138308331Y-52868007D01*
X138308308Y-52820646D01*
X138308485Y-52733401D01*
X138309705Y-52671111D01*
X138313002Y-52627472D01*
X138319410Y-52596178D01*
X138329963Y-52570922D01*
X138345695Y-52545399D01*
X138355882Y-52530485D01*
X138395933Y-52481220D01*
X138442139Y-52436672D01*
X138461111Y-52422161D01*
X138518765Y-52382985D01*
X139674245Y-52382985D01*
X140829726Y-52382985D01*
X140883070Y-52423672D01*
G37*
G36*
X150005915Y-52446992D02*
G01*
X150051508Y-52494296D01*
X150100249Y-52555968D01*
X150140267Y-52616534D01*
X150183643Y-52683789D01*
X150229367Y-52736694D01*
X150285940Y-52783294D01*
X150361862Y-52831636D01*
X150376569Y-52840182D01*
X150462417Y-52903577D01*
X150539618Y-52986326D01*
X150593521Y-53069619D01*
X150658051Y-53162408D01*
X150750901Y-53244271D01*
X150816103Y-53285595D01*
X150876726Y-53326486D01*
X150937654Y-53377945D01*
X150966825Y-53407776D01*
X151031754Y-53481540D01*
X151031754Y-53727086D01*
X151031754Y-53972633D01*
X150984219Y-54038253D01*
X150941105Y-54086480D01*
X150886951Y-54132688D01*
X150863080Y-54148940D01*
X150782049Y-54199959D01*
X150722673Y-54241275D01*
X150678924Y-54277710D01*
X150644775Y-54314086D01*
X150625778Y-54338725D01*
X150578462Y-54404044D01*
X150578462Y-54641631D01*
X150578462Y-54879217D01*
X150625411Y-54944029D01*
X150657771Y-54983776D01*
X150697576Y-55021746D01*
X150750586Y-55062581D01*
X150822563Y-55110927D01*
X150868645Y-55140106D01*
X150921088Y-55179760D01*
X150969938Y-55227685D01*
X150986356Y-55247959D01*
X151031754Y-55310629D01*
X151031754Y-55556175D01*
X151031754Y-55801722D01*
X150966825Y-55875485D01*
X150914350Y-55926276D01*
X150851380Y-55975254D01*
X150816103Y-55997667D01*
X150707728Y-56072651D01*
X150626838Y-56159371D01*
X150593521Y-56213642D01*
X150528963Y-56310304D01*
X150442369Y-56396119D01*
X150361752Y-56451556D01*
X150263705Y-56517802D01*
X150186984Y-56596674D01*
X150129982Y-56683140D01*
X150089750Y-56743353D01*
X150039237Y-56804554D01*
X150010351Y-56833861D01*
X149938298Y-56900277D01*
X148776494Y-56900277D01*
X147614689Y-56900277D01*
X147560852Y-56860842D01*
X147515605Y-56821534D01*
X147471871Y-56774253D01*
X147464031Y-56764273D01*
X147421046Y-56707139D01*
X147421046Y-55547561D01*
X148312000Y-55547561D01*
X148312000Y-55801433D01*
X148359535Y-55867053D01*
X148402584Y-55915596D01*
X148456422Y-55962409D01*
X148479826Y-55978813D01*
X148552582Y-56024954D01*
X149226400Y-56024954D01*
X149900218Y-56024954D01*
X149972974Y-55978813D01*
X150026070Y-55938030D01*
X150076138Y-55888305D01*
X150093265Y-55867053D01*
X150140800Y-55801433D01*
X150140800Y-55560725D01*
X150139866Y-55456086D01*
X150136852Y-55378586D01*
X150131438Y-55324151D01*
X150123306Y-55288708D01*
X150118642Y-55277808D01*
X150088956Y-55235703D01*
X150043746Y-55186492D01*
X149993468Y-55140460D01*
X149948576Y-55107890D01*
X149942535Y-55104586D01*
X149919926Y-55099775D01*
X149871858Y-55095776D01*
X149797356Y-55092563D01*
X149695445Y-55090114D01*
X149565152Y-55088404D01*
X149405501Y-55087410D01*
X149226651Y-55087108D01*
X149057362Y-55087049D01*
X148916326Y-55087174D01*
X148800536Y-55087932D01*
X148706984Y-55089773D01*
X148632664Y-55093149D01*
X148574569Y-55098508D01*
X148529691Y-55106301D01*
X148495023Y-55116978D01*
X148467558Y-55130990D01*
X148444289Y-55148786D01*
X148422208Y-55170816D01*
X148398309Y-55197532D01*
X148384371Y-55213195D01*
X148312000Y-55293689D01*
X148312000Y-55547561D01*
X147421046Y-55547561D01*
X147421046Y-55293689D01*
X147421046Y-54641631D01*
X147421046Y-53732008D01*
X148312000Y-53732008D01*
X148312151Y-53825722D01*
X148313117Y-53893715D01*
X148315667Y-53941526D01*
X148320568Y-53974696D01*
X148328591Y-53998765D01*
X148340503Y-54019273D01*
X148354508Y-54038371D01*
X148440144Y-54129358D01*
X148506083Y-54176061D01*
X148523418Y-54181001D01*
X148558336Y-54185119D01*
X148612826Y-54188470D01*
X148688880Y-54191108D01*
X148788488Y-54193087D01*
X148913640Y-54194462D01*
X149066326Y-54195287D01*
X149223268Y-54195600D01*
X149392491Y-54195589D01*
X149533183Y-54195204D01*
X149648074Y-54194360D01*
X149739895Y-54192974D01*
X149811374Y-54190964D01*
X149865242Y-54188245D01*
X149904228Y-54184735D01*
X149931062Y-54180350D01*
X149948474Y-54175006D01*
X149951974Y-54173357D01*
X149985300Y-54149867D01*
X150028656Y-54111124D01*
X150068429Y-54070067D01*
X150140800Y-53989573D01*
X150140800Y-53735701D01*
X150140800Y-53481829D01*
X150093265Y-53416209D01*
X150050216Y-53367665D01*
X149996378Y-53320852D01*
X149972974Y-53304448D01*
X149900218Y-53258308D01*
X149226400Y-53258308D01*
X148552582Y-53258308D01*
X148479826Y-53304448D01*
X148426730Y-53345231D01*
X148376662Y-53394957D01*
X148359535Y-53416209D01*
X148312000Y-53481829D01*
X148312000Y-53732008D01*
X147421046Y-53732008D01*
X147421046Y-53481829D01*
X147421046Y-52576123D01*
X147464031Y-52518989D01*
X147504848Y-52472456D01*
X147551368Y-52429719D01*
X147560852Y-52422420D01*
X147614689Y-52382985D01*
X148773944Y-52382985D01*
X149933199Y-52382985D01*
X150005915Y-52446992D01*
G37*
G36*
X133600122Y-50147174D02*
G01*
X133648390Y-50188622D01*
X133692536Y-50236841D01*
X133704068Y-50252402D01*
X133744123Y-50311349D01*
X133744123Y-50774298D01*
X133744123Y-51237248D01*
X133696588Y-51302868D01*
X133653474Y-51351095D01*
X133599320Y-51397304D01*
X133575450Y-51413556D01*
X133494418Y-51464574D01*
X133435042Y-51505890D01*
X133391293Y-51542326D01*
X133357145Y-51578701D01*
X133338148Y-51603340D01*
X133311234Y-51642390D01*
X133294094Y-51670901D01*
X133290831Y-51679265D01*
X133301154Y-51706580D01*
X133327800Y-51747229D01*
X133364285Y-51793166D01*
X133404126Y-51836345D01*
X133440837Y-51868721D01*
X133446976Y-51873022D01*
X133472423Y-51888955D01*
X133496581Y-51900124D01*
X133525484Y-51907375D01*
X133565166Y-51911554D01*
X133621661Y-51913509D01*
X133701005Y-51914085D01*
X133739880Y-51914120D01*
X133833043Y-51914661D01*
X133900637Y-51916624D01*
X133948345Y-51920602D01*
X133981847Y-51927189D01*
X134006827Y-51936978D01*
X134017662Y-51943113D01*
X134105235Y-52014177D01*
X134179865Y-52109596D01*
X134193583Y-52132542D01*
X134262145Y-52232971D01*
X134345886Y-52315143D01*
X134375607Y-52338105D01*
X134436567Y-52382985D01*
X135349650Y-52382985D01*
X135564987Y-52383209D01*
X135750196Y-52383896D01*
X135906409Y-52385066D01*
X136034755Y-52386741D01*
X136136365Y-52388941D01*
X136212370Y-52391688D01*
X136263900Y-52395002D01*
X136292087Y-52398904D01*
X136296874Y-52400525D01*
X136365979Y-52451147D01*
X136434492Y-52531936D01*
X136479508Y-52601815D01*
X136532815Y-52683633D01*
X136587021Y-52745044D01*
X136651654Y-52795690D01*
X136700875Y-52825759D01*
X136784123Y-52878897D01*
X136847613Y-52935241D01*
X136901982Y-53005298D01*
X136932514Y-53054618D01*
X136978922Y-53126642D01*
X137028300Y-53184914D01*
X137088593Y-53237080D01*
X137167740Y-53290791D01*
X137195382Y-53307765D01*
X137252499Y-53347889D01*
X137305634Y-53394587D01*
X137338130Y-53431249D01*
X137386092Y-53497460D01*
X137386092Y-53737966D01*
X137386092Y-53978473D01*
X137296215Y-54067775D01*
X137238437Y-54120271D01*
X137173456Y-54171956D01*
X137115513Y-54211533D01*
X137041853Y-54265405D01*
X136985213Y-54326066D01*
X136978744Y-54335351D01*
X136961177Y-54362707D01*
X136948778Y-54387026D01*
X136940648Y-54414311D01*
X136935885Y-54450565D01*
X136933589Y-54501791D01*
X136932860Y-54573993D01*
X136932800Y-54641631D01*
X136932964Y-54732475D01*
X136934054Y-54798059D01*
X136936967Y-54844383D01*
X136942603Y-54877447D01*
X136951858Y-54903253D01*
X136965630Y-54927801D01*
X136978590Y-54947678D01*
X137028898Y-55005845D01*
X137096877Y-55060171D01*
X137114641Y-55071496D01*
X137172420Y-55111206D01*
X137237294Y-55162840D01*
X137295261Y-55215254D01*
X137295497Y-55215487D01*
X137386092Y-55304789D01*
X137386092Y-55545295D01*
X137386092Y-55785802D01*
X137338130Y-55852012D01*
X137298599Y-55895493D01*
X137244074Y-55941926D01*
X137195382Y-55975496D01*
X137109028Y-56031264D01*
X137043904Y-56083246D01*
X136992113Y-56139009D01*
X136945759Y-56206122D01*
X136933645Y-56226327D01*
X136883574Y-56304367D01*
X136833065Y-56363720D01*
X136772171Y-56414337D01*
X136698338Y-56461798D01*
X136628265Y-56506226D01*
X136576922Y-56547659D01*
X136534835Y-56595657D01*
X136492531Y-56659783D01*
X136478087Y-56684098D01*
X136438118Y-56744661D01*
X136392423Y-56802489D01*
X136351692Y-56844314D01*
X136286311Y-56900277D01*
X135119631Y-56900277D01*
X133952950Y-56900277D01*
X133888722Y-56845300D01*
X133853350Y-56814779D01*
X133825118Y-56787778D01*
X133803221Y-56760457D01*
X133786856Y-56728972D01*
X133775217Y-56689481D01*
X133767499Y-56638142D01*
X133762899Y-56571113D01*
X133760611Y-56484551D01*
X133759831Y-56374614D01*
X133759754Y-56237459D01*
X133759754Y-56229440D01*
X133759468Y-56091181D01*
X133758513Y-55980862D01*
X133756739Y-55895166D01*
X133753997Y-55830778D01*
X133750444Y-55788062D01*
X134650708Y-55788062D01*
X134701959Y-55855257D01*
X134747317Y-55907010D01*
X134800840Y-55957779D01*
X134820405Y-55973703D01*
X134887599Y-56024954D01*
X135571458Y-56024954D01*
X136255317Y-56024954D01*
X136327449Y-55977175D01*
X136380422Y-55933915D01*
X136430508Y-55880100D01*
X136447360Y-55857265D01*
X136495138Y-55785133D01*
X136495138Y-55547881D01*
X136495138Y-55310629D01*
X136448189Y-55245817D01*
X136404720Y-55195135D01*
X136352755Y-55146727D01*
X136336429Y-55134057D01*
X136271617Y-55087108D01*
X135577302Y-55087108D01*
X134882986Y-55087108D01*
X134812284Y-55135752D01*
X134760508Y-55179565D01*
X134712052Y-55233580D01*
X134696144Y-55256043D01*
X134678536Y-55284802D01*
X134666189Y-55310401D01*
X134658170Y-55339045D01*
X134653546Y-55376937D01*
X134651382Y-55430279D01*
X134650745Y-55505275D01*
X134650708Y-55557876D01*
X134650708Y-55788062D01*
X133750444Y-55788062D01*
X133750138Y-55784380D01*
X133745013Y-55752655D01*
X133738474Y-55732288D01*
X133737320Y-55729926D01*
X133702290Y-55681178D01*
X133648405Y-55627436D01*
X133585057Y-55577100D01*
X133553757Y-55557876D01*
X133525348Y-55540428D01*
X133443870Y-55485421D01*
X133368028Y-55409888D01*
X133307988Y-55324233D01*
X133300576Y-55310380D01*
X133267114Y-55255725D01*
X133226903Y-55204382D01*
X133210165Y-55187162D01*
X133169637Y-55150320D01*
X133135669Y-55123855D01*
X133101966Y-55106050D01*
X133062231Y-55095189D01*
X133010168Y-55089555D01*
X132939480Y-55087434D01*
X132843872Y-55087108D01*
X132843091Y-55087108D01*
X132605507Y-55087108D01*
X132537861Y-55035611D01*
X132494556Y-54994755D01*
X132447161Y-54937901D01*
X132406601Y-54878567D01*
X132356926Y-54801222D01*
X132310322Y-54743226D01*
X132257445Y-54695236D01*
X132188954Y-54647909D01*
X132155125Y-54627092D01*
X132094152Y-54585286D01*
X132037573Y-54537871D01*
X131998081Y-54495831D01*
X131946585Y-54428185D01*
X131946678Y-54180964D01*
X132837538Y-54180964D01*
X132838517Y-54284844D01*
X132841668Y-54361586D01*
X132847317Y-54415258D01*
X132855787Y-54449929D01*
X132859696Y-54458745D01*
X132888137Y-54499085D01*
X132932012Y-54547298D01*
X132981182Y-54593281D01*
X133025504Y-54626932D01*
X133032923Y-54631309D01*
X133061379Y-54638177D01*
X133116410Y-54643609D01*
X133193351Y-54647294D01*
X133287535Y-54648927D01*
X133300202Y-54648971D01*
X133391034Y-54648960D01*
X133456551Y-54647941D01*
X133502699Y-54645070D01*
X133535424Y-54639505D01*
X133560670Y-54630402D01*
X133584386Y-54616917D01*
X133600292Y-54606414D01*
X133646836Y-54569145D01*
X133692236Y-54522913D01*
X133730078Y-54475459D01*
X133753947Y-54434521D01*
X133758931Y-54414985D01*
X133746948Y-54378570D01*
X133714918Y-54331672D01*
X133668900Y-54281008D01*
X133614949Y-54233296D01*
X133562655Y-54197281D01*
X133475149Y-54139623D01*
X133400753Y-54077476D01*
X133345976Y-54016650D01*
X133327236Y-53987147D01*
X133312282Y-53931523D01*
X133317797Y-53858198D01*
X133331380Y-53802783D01*
X133352935Y-53777998D01*
X133396215Y-53757495D01*
X133451690Y-53744988D01*
X133485070Y-53742861D01*
X133530065Y-53735989D01*
X133556289Y-53723165D01*
X134650708Y-53723165D01*
X134651006Y-53812998D01*
X134652466Y-53877844D01*
X134655935Y-53923975D01*
X134662263Y-53957665D01*
X134672297Y-53985186D01*
X134686885Y-54012811D01*
X134690776Y-54019502D01*
X134727753Y-54069264D01*
X134777115Y-54119545D01*
X134804099Y-54141626D01*
X134877354Y-54195379D01*
X135574486Y-54195766D01*
X136271617Y-54196154D01*
X136336429Y-54149205D01*
X136387111Y-54105736D01*
X136435519Y-54053771D01*
X136448189Y-54037444D01*
X136495138Y-53972633D01*
X136495138Y-53735053D01*
X136494958Y-53643952D01*
X136493841Y-53578175D01*
X136490924Y-53531784D01*
X136485345Y-53498842D01*
X136476242Y-53473411D01*
X136462750Y-53449554D01*
X136451078Y-53431869D01*
X136411904Y-53384328D01*
X136360572Y-53335436D01*
X136331096Y-53312286D01*
X136255174Y-53258308D01*
X135571387Y-53258308D01*
X134887599Y-53258308D01*
X134820405Y-53309559D01*
X134768651Y-53354917D01*
X134717882Y-53408440D01*
X134701959Y-53428005D01*
X134650708Y-53495199D01*
X134650708Y-53723165D01*
X133556289Y-53723165D01*
X133577266Y-53712907D01*
X133633264Y-53669917D01*
X133663395Y-53642807D01*
X133689737Y-53617859D01*
X133710779Y-53594786D01*
X133727117Y-53569879D01*
X133739345Y-53539432D01*
X133748060Y-53499735D01*
X133748559Y-53495199D01*
X133753855Y-53447082D01*
X133757327Y-53377764D01*
X133759070Y-53288073D01*
X133759681Y-53174302D01*
X133759754Y-53042598D01*
X133759754Y-52575244D01*
X133712805Y-52510433D01*
X133669515Y-52459898D01*
X133617911Y-52411744D01*
X133601604Y-52399078D01*
X133560108Y-52371742D01*
X133532074Y-52362389D01*
X133507717Y-52368101D01*
X133503968Y-52369975D01*
X133403549Y-52437802D01*
X133341595Y-52503951D01*
X133298646Y-52560215D01*
X133290831Y-53106046D01*
X133288708Y-53251016D01*
X133286767Y-53367937D01*
X133284774Y-53460022D01*
X133282494Y-53530479D01*
X133279692Y-53582521D01*
X133276135Y-53619358D01*
X133271587Y-53644200D01*
X133265815Y-53660258D01*
X133258584Y-53670744D01*
X133249659Y-53678867D01*
X133248967Y-53679428D01*
X133213363Y-53697557D01*
X133161940Y-53712086D01*
X133135619Y-53716372D01*
X133045515Y-53741781D01*
X132961411Y-53793063D01*
X132891519Y-53864907D01*
X132879516Y-53881958D01*
X132863378Y-53907559D01*
X132852015Y-53931503D01*
X132844590Y-53959750D01*
X132840267Y-53998261D01*
X132838209Y-54052997D01*
X132837579Y-54129916D01*
X132837538Y-54180964D01*
X131946678Y-54180964D01*
X131947019Y-53276631D01*
X131947454Y-52125077D01*
X131991881Y-52066401D01*
X132055140Y-51995541D01*
X132128230Y-51942014D01*
X132163295Y-51922761D01*
X132215068Y-51889568D01*
X132272210Y-51842903D01*
X132325500Y-51791311D01*
X132365715Y-51743337D01*
X132377631Y-51724171D01*
X132383147Y-51708621D01*
X132387711Y-51683467D01*
X132391405Y-51646032D01*
X132394310Y-51593643D01*
X132396509Y-51523624D01*
X132398084Y-51433299D01*
X132399115Y-51319995D01*
X132399685Y-51181035D01*
X132399876Y-51013744D01*
X132399877Y-50996251D01*
X132399877Y-50311349D01*
X132439932Y-50252402D01*
X132478593Y-50205849D01*
X132527310Y-50160058D01*
X132543878Y-50147174D01*
X132607767Y-50100892D01*
X133072000Y-50100892D01*
X133536233Y-50100892D01*
X133600122Y-50147174D01*
G37*
G36*
X147189084Y-44189819D02*
G01*
X147226512Y-44210290D01*
X147270276Y-44243489D01*
X147313271Y-44283998D01*
X147348394Y-44326396D01*
X147349729Y-44328341D01*
X147389785Y-44387288D01*
X147389785Y-44857318D01*
X147389785Y-45327349D01*
X147344319Y-45389044D01*
X147300854Y-45436824D01*
X147248325Y-45480188D01*
X147233530Y-45489815D01*
X147123775Y-45561909D01*
X147040278Y-45631820D01*
X146987743Y-45690774D01*
X146936492Y-45757969D01*
X146936492Y-45995402D01*
X146936266Y-46086786D01*
X146935054Y-46152769D01*
X146932057Y-46199210D01*
X146926477Y-46231967D01*
X146917515Y-46256901D01*
X146904373Y-46279870D01*
X146895998Y-46292429D01*
X146861322Y-46331775D01*
X146810593Y-46375923D01*
X146759228Y-46412371D01*
X146680893Y-46463027D01*
X146623514Y-46504565D01*
X146580433Y-46542526D01*
X146544996Y-46582451D01*
X146528185Y-46604714D01*
X146483200Y-46666813D01*
X146483200Y-47132176D01*
X146483200Y-47597539D01*
X146431703Y-47665185D01*
X146390848Y-47708490D01*
X146333994Y-47755885D01*
X146274659Y-47796445D01*
X146197315Y-47846120D01*
X146139319Y-47892724D01*
X146091329Y-47945601D01*
X146044002Y-48014092D01*
X146023184Y-48047921D01*
X145982937Y-48108442D01*
X145938760Y-48159667D01*
X145883923Y-48207796D01*
X145811698Y-48259032D01*
X145754493Y-48295538D01*
X145713088Y-48324365D01*
X145675356Y-48358820D01*
X145636561Y-48404435D01*
X145591970Y-48466742D01*
X145540438Y-48545631D01*
X145502334Y-48595553D01*
X145450548Y-48644254D01*
X145378502Y-48697674D01*
X145353264Y-48714643D01*
X145287253Y-48761664D01*
X145227858Y-48810046D01*
X145183294Y-48852868D01*
X145169603Y-48869388D01*
X145123323Y-48933275D01*
X145123323Y-49853921D01*
X145123429Y-50052106D01*
X145123782Y-50221326D01*
X145124434Y-50363878D01*
X145125440Y-50482057D01*
X145126851Y-50578160D01*
X145128722Y-50654484D01*
X145131104Y-50713324D01*
X145134052Y-50756977D01*
X145137617Y-50787739D01*
X145141854Y-50807905D01*
X145145569Y-50817587D01*
X145178689Y-50863060D01*
X145233147Y-50917168D01*
X145302496Y-50974217D01*
X145380289Y-51028515D01*
X145394664Y-51037540D01*
X145450181Y-51077888D01*
X145501990Y-51125585D01*
X145529019Y-51157326D01*
X145576615Y-51223603D01*
X145576615Y-51456737D01*
X145576789Y-51546779D01*
X145577923Y-51611636D01*
X145580938Y-51657385D01*
X145586754Y-51690101D01*
X145596293Y-51715861D01*
X145610474Y-51740742D01*
X145622405Y-51759001D01*
X145668729Y-51813284D01*
X145730936Y-51865560D01*
X145756761Y-51882819D01*
X145882350Y-51972019D01*
X145978339Y-52066062D01*
X146033838Y-52145265D01*
X146096723Y-52238935D01*
X146170972Y-52311911D01*
X146258790Y-52369974D01*
X146316144Y-52408725D01*
X146376436Y-52459207D01*
X146412644Y-52495460D01*
X146483200Y-52573935D01*
X146483200Y-52822911D01*
X146483200Y-53071888D01*
X146392556Y-53165098D01*
X146301912Y-53258308D01*
X145606262Y-53258308D01*
X144910613Y-53258308D01*
X144837857Y-53304448D01*
X144784761Y-53345231D01*
X144734692Y-53394957D01*
X144717566Y-53416209D01*
X144670031Y-53481829D01*
X144670031Y-55087108D01*
X144670031Y-56692386D01*
X144624207Y-56755644D01*
X144584170Y-56803751D01*
X144539076Y-56848066D01*
X144525039Y-56859589D01*
X144503980Y-56874834D01*
X144483488Y-56885699D01*
X144458047Y-56892926D01*
X144422141Y-56897256D01*
X144370254Y-56899430D01*
X144296871Y-56900190D01*
X144222207Y-56900277D01*
X144128029Y-56900039D01*
X144059628Y-56898876D01*
X144011519Y-56896115D01*
X143978218Y-56891084D01*
X143954243Y-56883110D01*
X143934107Y-56871520D01*
X143922966Y-56863569D01*
X143881323Y-56827402D01*
X143837882Y-56781754D01*
X143826144Y-56767636D01*
X143779077Y-56708409D01*
X143779077Y-55101804D01*
X143779077Y-53495199D01*
X143727826Y-53428005D01*
X143682468Y-53376251D01*
X143628945Y-53325482D01*
X143609380Y-53309559D01*
X143542185Y-53258308D01*
X142845399Y-53258308D01*
X142148612Y-53258308D01*
X142095268Y-53217620D01*
X142052198Y-53178616D01*
X142008562Y-53129926D01*
X141996101Y-53113675D01*
X141978356Y-53088362D01*
X141965910Y-53065589D01*
X141957823Y-53039346D01*
X141953155Y-53003624D01*
X141950966Y-52952417D01*
X141950318Y-52879714D01*
X141950277Y-52820646D01*
X141950277Y-52590875D01*
X141997831Y-52525229D01*
X142037052Y-52482467D01*
X142096041Y-52432267D01*
X142166725Y-52381404D01*
X142177981Y-52374043D01*
X142234560Y-52336460D01*
X142278303Y-52303321D01*
X142315097Y-52268326D01*
X142350825Y-52225178D01*
X142391372Y-52167576D01*
X142416398Y-52129353D01*
X143306033Y-52129353D01*
X143306762Y-52152826D01*
X143323273Y-52182459D01*
X143339770Y-52205447D01*
X143415311Y-52291671D01*
X143497723Y-52355758D01*
X143510000Y-52361985D01*
X143527960Y-52367136D01*
X143554443Y-52371318D01*
X143592290Y-52374633D01*
X143644342Y-52377186D01*
X143713438Y-52379081D01*
X143802419Y-52380422D01*
X143914127Y-52381313D01*
X144051400Y-52381859D01*
X144217081Y-52382164D01*
X144217966Y-52382165D01*
X144899133Y-52382985D01*
X144972633Y-52334300D01*
X145025235Y-52292279D01*
X145074595Y-52241391D01*
X145092544Y-52218160D01*
X145138954Y-52150706D01*
X145138954Y-51909683D01*
X145138954Y-51668660D01*
X145091637Y-51603340D01*
X145060413Y-51564581D01*
X145023327Y-51528751D01*
X144974351Y-51491029D01*
X144907457Y-51446594D01*
X144854335Y-51413556D01*
X144800843Y-51373511D01*
X144750535Y-51324270D01*
X144733196Y-51302868D01*
X144685662Y-51237248D01*
X144685662Y-51000794D01*
X144685335Y-50905193D01*
X144683206Y-50834535D01*
X144677544Y-50782504D01*
X144666624Y-50742782D01*
X144648718Y-50709052D01*
X144622097Y-50674996D01*
X144585607Y-50634912D01*
X144551525Y-50600364D01*
X144519301Y-50575204D01*
X144483209Y-50557958D01*
X144437521Y-50547148D01*
X144376513Y-50541299D01*
X144294458Y-50538932D01*
X144211947Y-50538554D01*
X143971142Y-50538554D01*
X143898988Y-50593647D01*
X143849690Y-50638262D01*
X143804829Y-50690270D01*
X143787325Y-50716158D01*
X143747815Y-50783577D01*
X143747815Y-51247569D01*
X143747815Y-51711560D01*
X143681400Y-51783612D01*
X143628181Y-51833413D01*
X143565189Y-51881476D01*
X143530678Y-51903244D01*
X143442874Y-51961958D01*
X143370504Y-52028495D01*
X143320928Y-52096015D01*
X143318716Y-52100187D01*
X143306033Y-52129353D01*
X142416398Y-52129353D01*
X142439382Y-52094249D01*
X142469974Y-52051531D01*
X142505671Y-52012915D01*
X142552169Y-51973538D01*
X142615164Y-51928535D01*
X142692738Y-51877885D01*
X142767312Y-51815795D01*
X142835172Y-51727513D01*
X142835826Y-51726492D01*
X142890399Y-51644377D01*
X142937181Y-51583260D01*
X142982683Y-51536340D01*
X143033415Y-51496816D01*
X143089329Y-51461712D01*
X143179554Y-51402414D01*
X143244978Y-51343423D01*
X143291500Y-51279167D01*
X143300554Y-51262253D01*
X143305402Y-51250147D01*
X143309595Y-51232964D01*
X143313180Y-51208525D01*
X143316202Y-51174650D01*
X143318708Y-51129162D01*
X143320746Y-51069880D01*
X143322360Y-50994627D01*
X143323599Y-50901222D01*
X143324509Y-50787488D01*
X143325136Y-50651246D01*
X143325526Y-50490316D01*
X143325727Y-50302520D01*
X143325785Y-50085678D01*
X143325785Y-50081700D01*
X143325735Y-49865019D01*
X143325555Y-49677432D01*
X143325197Y-49516774D01*
X143324613Y-49380877D01*
X143323755Y-49267575D01*
X143322575Y-49174701D01*
X143321026Y-49100089D01*
X143319060Y-49041572D01*
X143316628Y-48996984D01*
X143313685Y-48964157D01*
X143310180Y-48940925D01*
X143306067Y-48925122D01*
X143301299Y-48914581D01*
X143300005Y-48912524D01*
X143241468Y-48839048D01*
X143171140Y-48772245D01*
X143100176Y-48722525D01*
X143091323Y-48717776D01*
X142997165Y-48653570D01*
X142912966Y-48565153D01*
X142858949Y-48484399D01*
X142785418Y-48380346D01*
X142692199Y-48297043D01*
X142630653Y-48258067D01*
X142526740Y-48184416D01*
X142443324Y-48090627D01*
X142405174Y-48030253D01*
X142334893Y-47929992D01*
X142251075Y-47851490D01*
X142194908Y-47816310D01*
X142138777Y-47780810D01*
X142078727Y-47732523D01*
X142023832Y-47679735D01*
X141983170Y-47630732D01*
X141972523Y-47613279D01*
X141965800Y-47594308D01*
X141960502Y-47564154D01*
X141956483Y-47519535D01*
X141953598Y-47457168D01*
X141951699Y-47373771D01*
X141950642Y-47266062D01*
X141950281Y-47130760D01*
X141950277Y-47113124D01*
X141950277Y-46655988D01*
X141909418Y-46597028D01*
X141831844Y-46511932D01*
X141727928Y-46441704D01*
X141718789Y-46436909D01*
X141662767Y-46401118D01*
X141604469Y-46352920D01*
X141553688Y-46301309D01*
X141520216Y-46255281D01*
X141519419Y-46253766D01*
X141509675Y-46224723D01*
X141502938Y-46178718D01*
X141498865Y-46111524D01*
X141497113Y-46018911D01*
X141496985Y-45977491D01*
X141496985Y-45744598D01*
X141449450Y-45678978D01*
X141406336Y-45630751D01*
X141352182Y-45584542D01*
X141328311Y-45568290D01*
X141247279Y-45517272D01*
X141187903Y-45475956D01*
X141144155Y-45439520D01*
X141110006Y-45403145D01*
X141091009Y-45378506D01*
X141043692Y-45313186D01*
X141043692Y-44846034D01*
X141043692Y-44378881D01*
X141134336Y-44285671D01*
X141190591Y-44231345D01*
X141234602Y-44201546D01*
X141273509Y-44196273D01*
X141314450Y-44215528D01*
X141364566Y-44259309D01*
X141390710Y-44285671D01*
X141481354Y-44378881D01*
X141481354Y-44616452D01*
X141481647Y-44708524D01*
X141483036Y-44775364D01*
X141486282Y-44823000D01*
X141492147Y-44857459D01*
X141501394Y-44884768D01*
X141514784Y-44910956D01*
X141519656Y-44919381D01*
X141556674Y-44971508D01*
X141606103Y-45019111D01*
X141674360Y-45067710D01*
X141733808Y-45103569D01*
X141786334Y-45140179D01*
X141841740Y-45188365D01*
X141870577Y-45218230D01*
X141934646Y-45291017D01*
X141935034Y-45535001D01*
X141935421Y-45778985D01*
X141989136Y-45852188D01*
X142051381Y-45918127D01*
X142136182Y-45979968D01*
X142148964Y-45987650D01*
X142242930Y-46050573D01*
X142317010Y-46116348D01*
X142366206Y-46180448D01*
X142370432Y-46188265D01*
X142376445Y-46216179D01*
X142381187Y-46274159D01*
X142384667Y-46362477D01*
X142386896Y-46481406D01*
X142387883Y-46631218D01*
X142387938Y-46682196D01*
X142387938Y-47141986D01*
X142434888Y-47206798D01*
X142478356Y-47257480D01*
X142530322Y-47305889D01*
X142546648Y-47318558D01*
X142611460Y-47365508D01*
X143084638Y-47365508D01*
X143557816Y-47365508D01*
X143625331Y-47314012D01*
X143675113Y-47269482D01*
X143721930Y-47217225D01*
X143737121Y-47196594D01*
X143781395Y-47130671D01*
X143749950Y-47079792D01*
X143710390Y-47025542D01*
X143659716Y-46976188D01*
X143591117Y-46925750D01*
X143532395Y-46888769D01*
X143472998Y-46847893D01*
X143417171Y-46801011D01*
X143377281Y-46758600D01*
X143325785Y-46690954D01*
X143325785Y-46214761D01*
X143325785Y-45738568D01*
X143399721Y-45659524D01*
X143449991Y-45611894D01*
X143505125Y-45568811D01*
X143544306Y-45544520D01*
X143638187Y-45480955D01*
X143722251Y-45393047D01*
X143776964Y-45311399D01*
X143815320Y-45254361D01*
X143864468Y-45195236D01*
X143893895Y-45165462D01*
X143965948Y-45099046D01*
X144221391Y-45099046D01*
X144476834Y-45099046D01*
X144542215Y-45155009D01*
X144583790Y-45197811D01*
X144629470Y-45255806D01*
X144668610Y-45315225D01*
X144704960Y-45374593D01*
X144738346Y-45420022D01*
X144775757Y-45458355D01*
X144824180Y-45496439D01*
X144890604Y-45541119D01*
X144915601Y-45557161D01*
X144975923Y-45600014D01*
X145031407Y-45646984D01*
X145071617Y-45689119D01*
X145075816Y-45694648D01*
X145123323Y-45760229D01*
X145123323Y-46211952D01*
X145123027Y-46349858D01*
X145122040Y-46459808D01*
X145120213Y-46545105D01*
X145117398Y-46609048D01*
X145113447Y-46654940D01*
X145108211Y-46686082D01*
X145101542Y-46705774D01*
X145101077Y-46706695D01*
X145067957Y-46752168D01*
X145013500Y-46806276D01*
X144944151Y-46863325D01*
X144866357Y-46917622D01*
X144851982Y-46926648D01*
X144798965Y-46965461D01*
X144748260Y-47012949D01*
X144705960Y-47062165D01*
X144678162Y-47106159D01*
X144670466Y-47133601D01*
X144682036Y-47164751D01*
X144711450Y-47207719D01*
X144752177Y-47254749D01*
X144797687Y-47298087D01*
X144829493Y-47322476D01*
X144855161Y-47338987D01*
X144878851Y-47350621D01*
X144906512Y-47358229D01*
X144944094Y-47362663D01*
X144997545Y-47364774D01*
X145072815Y-47365415D01*
X145129583Y-47365449D01*
X145223912Y-47364922D01*
X145292580Y-47363015D01*
X145341174Y-47359161D01*
X145375286Y-47352791D01*
X145400502Y-47343336D01*
X145412492Y-47336684D01*
X145471159Y-47288999D01*
X145537431Y-47213832D01*
X145609345Y-47113464D01*
X145623333Y-47091969D01*
X145679359Y-47018258D01*
X145744749Y-46962292D01*
X145773929Y-46943477D01*
X145831796Y-46903752D01*
X145896734Y-46852102D01*
X145954727Y-46799680D01*
X145954943Y-46799467D01*
X146045538Y-46710165D01*
X146045538Y-46466978D01*
X146045751Y-46374375D01*
X146046907Y-46307236D01*
X146049781Y-46259766D01*
X146055149Y-46226166D01*
X146063787Y-46200641D01*
X146076471Y-46177394D01*
X146086330Y-46162150D01*
X146160863Y-46077153D01*
X146262369Y-46007020D01*
X146277026Y-45999248D01*
X146333049Y-45963457D01*
X146391346Y-45915258D01*
X146442127Y-45863648D01*
X146475599Y-45817620D01*
X146476396Y-45816105D01*
X146486258Y-45786598D01*
X146493037Y-45739809D01*
X146497083Y-45671514D01*
X146498745Y-45577488D01*
X146498831Y-45544208D01*
X146498831Y-45315694D01*
X146547498Y-45244959D01*
X146595293Y-45190303D01*
X146659878Y-45136246D01*
X146692082Y-45114506D01*
X146795896Y-45044294D01*
X146872120Y-44979613D01*
X146923406Y-44918077D01*
X146937618Y-44893639D01*
X146949893Y-44865233D01*
X146958385Y-44832305D01*
X146963748Y-44788703D01*
X146966633Y-44728277D01*
X146967693Y-44644877D01*
X146967754Y-44609645D01*
X146967934Y-44521471D01*
X146969117Y-44458456D01*
X146972268Y-44414500D01*
X146978352Y-44383499D01*
X146988334Y-44359353D01*
X147003179Y-44335959D01*
X147013256Y-44321907D01*
X147092268Y-44237607D01*
X147165093Y-44187493D01*
X147189084Y-44189819D01*
G37*
G36*
X157050410Y-45553521D02*
G01*
X157133028Y-45556905D01*
X157192606Y-45562240D01*
X157225201Y-45569277D01*
X157226474Y-45569879D01*
X157295579Y-45620501D01*
X157364092Y-45701290D01*
X157409108Y-45771169D01*
X157459079Y-45848616D01*
X157509807Y-45907730D01*
X157571214Y-45958401D01*
X157643569Y-46004814D01*
X157714141Y-46049593D01*
X157765738Y-46091340D01*
X157807964Y-46139696D01*
X157850422Y-46204298D01*
X157862400Y-46224461D01*
X157906403Y-46294332D01*
X157949315Y-46348005D01*
X157999533Y-46393726D01*
X158065451Y-46439740D01*
X158109082Y-46466738D01*
X158168479Y-46507615D01*
X158224305Y-46554497D01*
X158264196Y-46596907D01*
X158315692Y-46664553D01*
X158315692Y-47131046D01*
X158315692Y-47597539D01*
X158264196Y-47665185D01*
X158223933Y-47707942D01*
X158168035Y-47754817D01*
X158109082Y-47795354D01*
X158031040Y-47845215D01*
X157973381Y-47890319D01*
X157927922Y-47938601D01*
X157886477Y-47997999D01*
X157867339Y-48029815D01*
X157823023Y-48101444D01*
X157782488Y-48153691D01*
X157736688Y-48195680D01*
X157676578Y-48236538D01*
X157641742Y-48257400D01*
X157554129Y-48317030D01*
X157482069Y-48382692D01*
X157431903Y-48448319D01*
X157421718Y-48467864D01*
X157415060Y-48494032D01*
X157422604Y-48522866D01*
X157447249Y-48564096D01*
X157452831Y-48572287D01*
X157477794Y-48605792D01*
X157505527Y-48635340D01*
X157541738Y-48665575D01*
X157592133Y-48701142D01*
X157662418Y-48746684D01*
X157683364Y-48759920D01*
X157730288Y-48793952D01*
X157774876Y-48837142D01*
X157822012Y-48895096D01*
X157876580Y-48973420D01*
X157898349Y-49006699D01*
X157944901Y-49071422D01*
X157993434Y-49119648D01*
X158056764Y-49163742D01*
X158068570Y-49170907D01*
X158160848Y-49231295D01*
X158230079Y-49289640D01*
X158283276Y-49352476D01*
X158311830Y-49397508D01*
X158359737Y-49475685D01*
X158404408Y-49533325D01*
X158453977Y-49579009D01*
X158516579Y-49621319D01*
X158533524Y-49631386D01*
X158596413Y-49672956D01*
X158658006Y-49721622D01*
X158704972Y-49766848D01*
X158704977Y-49766854D01*
X158768985Y-49839570D01*
X158768985Y-50992832D01*
X158768985Y-52146093D01*
X158820236Y-52213287D01*
X158865594Y-52265041D01*
X158919117Y-52315810D01*
X158938682Y-52331733D01*
X159005876Y-52382985D01*
X159929309Y-52382985D01*
X160852741Y-52382985D01*
X160906086Y-52423672D01*
X160949156Y-52462676D01*
X160992792Y-52511367D01*
X161005253Y-52527617D01*
X161022998Y-52552930D01*
X161035444Y-52575703D01*
X161043531Y-52601947D01*
X161048199Y-52637668D01*
X161050388Y-52688875D01*
X161051036Y-52761578D01*
X161051077Y-52820646D01*
X161050914Y-52909846D01*
X161049799Y-52973794D01*
X161046791Y-53018496D01*
X161040953Y-53049963D01*
X161031343Y-53074203D01*
X161017022Y-53097224D01*
X161005253Y-53113675D01*
X160965216Y-53161782D01*
X160920122Y-53206096D01*
X160906086Y-53217620D01*
X160852741Y-53258308D01*
X160169748Y-53258308D01*
X159998422Y-53258317D01*
X159855392Y-53258607D01*
X159737692Y-53259570D01*
X159642357Y-53261596D01*
X159566421Y-53265079D01*
X159506918Y-53270409D01*
X159460884Y-53277978D01*
X159425351Y-53288179D01*
X159397356Y-53301403D01*
X159373932Y-53318041D01*
X159352114Y-53338486D01*
X159328935Y-53363130D01*
X159322331Y-53370261D01*
X159306260Y-53386656D01*
X159291996Y-53400436D01*
X159279432Y-53413455D01*
X159268462Y-53427568D01*
X159258977Y-53444631D01*
X159250872Y-53466498D01*
X159244038Y-53495025D01*
X159238370Y-53532066D01*
X159233759Y-53579476D01*
X159230099Y-53639111D01*
X159227283Y-53712825D01*
X159225203Y-53802474D01*
X159223753Y-53909912D01*
X159222825Y-54036994D01*
X159222312Y-54185576D01*
X159222108Y-54357513D01*
X159222104Y-54554659D01*
X159222195Y-54778869D01*
X159222272Y-55031999D01*
X159222277Y-55103432D01*
X159222277Y-56707139D01*
X159179292Y-56764273D01*
X159138475Y-56810805D01*
X159091955Y-56853542D01*
X159082471Y-56860842D01*
X159060800Y-56875764D01*
X159039376Y-56886353D01*
X159012582Y-56893351D01*
X158974798Y-56897499D01*
X158920408Y-56899541D01*
X158843792Y-56900217D01*
X158783924Y-56900277D01*
X158539213Y-56900277D01*
X158475324Y-56853995D01*
X158427056Y-56812547D01*
X158382910Y-56764328D01*
X158371379Y-56748767D01*
X158331323Y-56689820D01*
X158331323Y-55085824D01*
X158331323Y-53481829D01*
X158285042Y-53417939D01*
X158246116Y-53372658D01*
X158198954Y-53329636D01*
X158151755Y-53295282D01*
X158112722Y-53276000D01*
X158100713Y-53273938D01*
X158065541Y-53285269D01*
X158019458Y-53314942D01*
X157970555Y-53356476D01*
X157926926Y-53403392D01*
X157909465Y-53427073D01*
X157862400Y-53498129D01*
X157862400Y-53959624D01*
X157862400Y-54421120D01*
X157820255Y-54481935D01*
X157780172Y-54529107D01*
X157729873Y-54574919D01*
X157711931Y-54588283D01*
X157685293Y-54605983D01*
X157661389Y-54618374D01*
X157634101Y-54626403D01*
X157597314Y-54631016D01*
X157544911Y-54633160D01*
X157470777Y-54633780D01*
X157417679Y-54633815D01*
X157328372Y-54633577D01*
X157264215Y-54632276D01*
X157219099Y-54629033D01*
X157186912Y-54622967D01*
X157161545Y-54613198D01*
X157136888Y-54598847D01*
X157126174Y-54591837D01*
X157078004Y-54552275D01*
X157031019Y-54501820D01*
X157015657Y-54481426D01*
X156968574Y-54412993D01*
X157010869Y-54351962D01*
X157090612Y-54264221D01*
X157196867Y-54192934D01*
X157202934Y-54189771D01*
X157258956Y-54153980D01*
X157317254Y-54105781D01*
X157368035Y-54054171D01*
X157401507Y-54008143D01*
X157402304Y-54006628D01*
X157411960Y-53977930D01*
X157418664Y-53932510D01*
X157422755Y-53866137D01*
X157424572Y-53774584D01*
X157424738Y-53726915D01*
X157424738Y-53490586D01*
X157378328Y-53423132D01*
X157336473Y-53373666D01*
X157283405Y-53325347D01*
X157258418Y-53306992D01*
X157184917Y-53258308D01*
X156964011Y-53258308D01*
X156876539Y-53258523D01*
X156813902Y-53259844D01*
X156769675Y-53263278D01*
X156737430Y-53269837D01*
X156710742Y-53280529D01*
X156683185Y-53296365D01*
X156670349Y-53304448D01*
X156617253Y-53345231D01*
X156567185Y-53394957D01*
X156550058Y-53416209D01*
X156502523Y-53481829D01*
X156502523Y-53941619D01*
X156501902Y-54101047D01*
X156500034Y-54229453D01*
X156496912Y-54327050D01*
X156492527Y-54394054D01*
X156486872Y-54430679D01*
X156485044Y-54435551D01*
X156455615Y-54478590D01*
X156411062Y-54528706D01*
X156361668Y-54575443D01*
X156317718Y-54608346D01*
X156311822Y-54611657D01*
X156282404Y-54621439D01*
X156234963Y-54628160D01*
X156165447Y-54632154D01*
X156069805Y-54633751D01*
X156041100Y-54633815D01*
X155812586Y-54633815D01*
X155741884Y-54682460D01*
X155690108Y-54726273D01*
X155641652Y-54780288D01*
X155625744Y-54802751D01*
X155580308Y-54874397D01*
X155580308Y-55340930D01*
X155580308Y-55807462D01*
X155506371Y-55886506D01*
X155456101Y-55934136D01*
X155400967Y-55977220D01*
X155361786Y-56001511D01*
X155271530Y-56062004D01*
X155191382Y-56142916D01*
X155134831Y-56228154D01*
X155071142Y-56321914D01*
X154983188Y-56405910D01*
X154901661Y-56460528D01*
X154792515Y-56538344D01*
X154708896Y-56634173D01*
X154680514Y-56681446D01*
X154642425Y-56746255D01*
X154601494Y-56797337D01*
X154546509Y-56848315D01*
X154535755Y-56857292D01*
X154483755Y-56900277D01*
X153773423Y-56900277D01*
X153063090Y-56900277D01*
X152981360Y-56817528D01*
X152929404Y-56759225D01*
X152877349Y-56691724D01*
X152843217Y-56640434D01*
X152783735Y-56559020D01*
X152715781Y-56502050D01*
X152713217Y-56500444D01*
X152631715Y-56448327D01*
X152568864Y-56402905D01*
X152517769Y-56357274D01*
X152471532Y-56304532D01*
X152423257Y-56237775D01*
X152371085Y-56157998D01*
X152327469Y-56101821D01*
X152270075Y-56052462D01*
X152211877Y-56014556D01*
X152148436Y-55972141D01*
X152085856Y-55922997D01*
X152037337Y-55877517D01*
X152036031Y-55876092D01*
X151969600Y-55803098D01*
X151969600Y-54641631D01*
X151969600Y-54641533D01*
X152860554Y-54641533D01*
X152860554Y-55801433D01*
X152908089Y-55867053D01*
X152951137Y-55915596D01*
X153004976Y-55962409D01*
X153028380Y-55978813D01*
X153101136Y-56024954D01*
X153770821Y-56024954D01*
X153933830Y-56024884D01*
X154068580Y-56024592D01*
X154178073Y-56023955D01*
X154265312Y-56022850D01*
X154333298Y-56021155D01*
X154385035Y-56018745D01*
X154423523Y-56015497D01*
X154451766Y-56011290D01*
X154472766Y-56005999D01*
X154489525Y-55999501D01*
X154498500Y-55995124D01*
X154576111Y-55940191D01*
X154647840Y-55860148D01*
X154663510Y-55837814D01*
X154668404Y-55828374D01*
X154672644Y-55814288D01*
X154676277Y-55793416D01*
X154679348Y-55763619D01*
X154681904Y-55722757D01*
X154683991Y-55668690D01*
X154685655Y-55599281D01*
X154686942Y-55512388D01*
X154687899Y-55405872D01*
X154688572Y-55277594D01*
X154689006Y-55125415D01*
X154689249Y-54947195D01*
X154689345Y-54740794D01*
X154689354Y-54640498D01*
X154689354Y-53481829D01*
X154641819Y-53416209D01*
X154598770Y-53367665D01*
X154544932Y-53320852D01*
X154521528Y-53304448D01*
X154448772Y-53258308D01*
X153777175Y-53258308D01*
X153105577Y-53258308D01*
X153038159Y-53297818D01*
X152988692Y-53334269D01*
X152938112Y-53382912D01*
X152915647Y-53409481D01*
X152860554Y-53481634D01*
X152860554Y-54641533D01*
X151969600Y-54641533D01*
X151969600Y-53481634D01*
X151969600Y-53480163D01*
X152036031Y-53407169D01*
X152083827Y-53362017D01*
X152146161Y-53312871D01*
X152209818Y-53270122D01*
X152211877Y-53268888D01*
X152277036Y-53226417D01*
X152324650Y-53184462D01*
X152366228Y-53131996D01*
X152386047Y-53102000D01*
X152446647Y-53012086D01*
X152501929Y-52943435D01*
X152559071Y-52888656D01*
X152625251Y-52840358D01*
X152662826Y-52817013D01*
X152727021Y-52775574D01*
X152773180Y-52736066D01*
X152812036Y-52688194D01*
X152837108Y-52649894D01*
X152882648Y-52584075D01*
X152937679Y-52514708D01*
X152981360Y-52466233D01*
X153063090Y-52382985D01*
X153774971Y-52382985D01*
X154486852Y-52382985D01*
X154558905Y-52449400D01*
X154608582Y-52502431D01*
X154656431Y-52565041D01*
X154678148Y-52599434D01*
X154755267Y-52708367D01*
X154849028Y-52792677D01*
X154908812Y-52828681D01*
X154980248Y-52876497D01*
X155051525Y-52943816D01*
X155112748Y-53020436D01*
X155141642Y-53068769D01*
X155206594Y-53162348D01*
X155299560Y-53244440D01*
X155363171Y-53284756D01*
X155423384Y-53324989D01*
X155484585Y-53375502D01*
X155513892Y-53404388D01*
X155580308Y-53476440D01*
X155580308Y-53717359D01*
X155580308Y-53958279D01*
X155632516Y-54034232D01*
X155676399Y-54086746D01*
X155729837Y-54135638D01*
X155757427Y-54155335D01*
X155830130Y-54200486D01*
X155892806Y-54159010D01*
X155938927Y-54121480D01*
X155987072Y-54071741D01*
X156009784Y-54043520D01*
X156064086Y-53969508D01*
X156064474Y-52365791D01*
X156064528Y-52143819D01*
X157862400Y-52143819D01*
X157908054Y-52211796D01*
X157948251Y-52262363D01*
X157996040Y-52309030D01*
X158043798Y-52345485D01*
X158083900Y-52365419D01*
X158096018Y-52367354D01*
X158123479Y-52358990D01*
X158163247Y-52337946D01*
X158179813Y-52327298D01*
X158226367Y-52288638D01*
X158272157Y-52239921D01*
X158285042Y-52223353D01*
X158331323Y-52159463D01*
X158331323Y-51455356D01*
X158331323Y-50751249D01*
X158289178Y-50690434D01*
X158245850Y-50638815D01*
X158194873Y-50594251D01*
X158143556Y-50561714D01*
X158099208Y-50546177D01*
X158078654Y-50547187D01*
X158043218Y-50566873D01*
X157997309Y-50603204D01*
X157949579Y-50648096D01*
X157908680Y-50693465D01*
X157884646Y-50728444D01*
X157879135Y-50743980D01*
X157874574Y-50769116D01*
X157870882Y-50806523D01*
X157867977Y-50858875D01*
X157865777Y-50928843D01*
X157864201Y-51019100D01*
X157863168Y-51132320D01*
X157862595Y-51271173D01*
X157862402Y-51438334D01*
X157862400Y-51457641D01*
X157862400Y-52143819D01*
X156064528Y-52143819D01*
X156064694Y-51457641D01*
X156064862Y-50762075D01*
X156017912Y-50697263D01*
X155981032Y-50653878D01*
X155935067Y-50610094D01*
X155887709Y-50572162D01*
X155846649Y-50546329D01*
X155822585Y-50538554D01*
X155790887Y-50549809D01*
X155747516Y-50579276D01*
X155700008Y-50620503D01*
X155655903Y-50667040D01*
X155626448Y-50706380D01*
X155580308Y-50779136D01*
X155580308Y-51474146D01*
X155580308Y-52169156D01*
X155489024Y-52260439D01*
X155443566Y-52302843D01*
X155403522Y-52334768D01*
X155375868Y-52350812D01*
X155371218Y-52351723D01*
X155348271Y-52341351D01*
X155310651Y-52313775D01*
X155265374Y-52274308D01*
X155251487Y-52261079D01*
X155158277Y-52170435D01*
X155158277Y-51002453D01*
X155158277Y-49834471D01*
X155224692Y-49762418D01*
X155277911Y-49712617D01*
X155340903Y-49664555D01*
X155375414Y-49642787D01*
X155473231Y-49576640D01*
X155549901Y-49497693D01*
X155606997Y-49411017D01*
X155676966Y-49313248D01*
X155765482Y-49230015D01*
X155844911Y-49179248D01*
X155928380Y-49122592D01*
X156002529Y-49046336D01*
X156050235Y-48973508D01*
X156108027Y-48885989D01*
X156186226Y-48803539D01*
X156274474Y-48736773D01*
X156290337Y-48727404D01*
X156380702Y-48666540D01*
X156452705Y-48597955D01*
X156495715Y-48535867D01*
X156508008Y-48508088D01*
X156508536Y-48485094D01*
X156494994Y-48456420D01*
X156469858Y-48418544D01*
X156414195Y-48356028D01*
X156339713Y-48298483D01*
X156325902Y-48289880D01*
X156194128Y-48192976D01*
X156084522Y-48074635D01*
X156030456Y-47994535D01*
X155997423Y-47943629D01*
X155962709Y-47903104D01*
X155918169Y-47865124D01*
X155855660Y-47821855D01*
X155841247Y-47812497D01*
X155778201Y-47768941D01*
X155719709Y-47723483D01*
X155674782Y-47683331D01*
X155660730Y-47668117D01*
X155611569Y-47608477D01*
X155611569Y-47127153D01*
X155611569Y-46645828D01*
X155693904Y-46564099D01*
X155752561Y-46511617D01*
X155822155Y-46457470D01*
X155877565Y-46419846D01*
X155938427Y-46378486D01*
X155983315Y-46336305D01*
X156023534Y-46281734D01*
X156042589Y-46250942D01*
X156099077Y-46164373D01*
X156155597Y-46097681D01*
X156221962Y-46041051D01*
X156307989Y-45984668D01*
X156310173Y-45983359D01*
X156373823Y-45941622D01*
X156420010Y-45900172D01*
X156460306Y-45847704D01*
X156479077Y-45818334D01*
X156524342Y-45752541D01*
X156579068Y-45683520D01*
X156623329Y-45634673D01*
X156705059Y-45552338D01*
X156948696Y-45552338D01*
X157050410Y-45553521D01*
G37*
D12*
%TO.C,S1*%
X162000000Y-69530000D02*
X162000000Y-82030000D01*
X162000000Y-82030000D02*
X174500000Y-82030000D01*
X174500000Y-69530000D02*
X162000000Y-69530000D01*
X174500000Y-82030000D02*
X174500000Y-69530000D01*
D10*
X161600000Y-71970000D02*
G75*
G02*
X161400000Y-71970000I-100000J0D01*
G01*
X161400000Y-71970000D02*
G75*
G02*
X161600000Y-71970000I100000J0D01*
G01*
D11*
%TO.C,G\u002A\u002A\u002A*%
G36*
X171582017Y-67463043D02*
G01*
X171692863Y-67482588D01*
X171673318Y-67593433D01*
X171653773Y-67704278D01*
X171542927Y-67684734D01*
X171432082Y-67665189D01*
X171451627Y-67554344D01*
X171471172Y-67443498D01*
X171582017Y-67463043D01*
G37*
G36*
X170512652Y-67045902D02*
G01*
X170623499Y-67065447D01*
X170603953Y-67176293D01*
X170584408Y-67287138D01*
X170695253Y-67306683D01*
X170806099Y-67326228D01*
X170825644Y-67215383D01*
X170845190Y-67104537D01*
X171177726Y-67163172D01*
X171510262Y-67221807D01*
X171490717Y-67332653D01*
X171471172Y-67443498D01*
X171138636Y-67384863D01*
X170806099Y-67326228D01*
X170786554Y-67437074D01*
X170767009Y-67547919D01*
X170877854Y-67567464D01*
X170988699Y-67587009D01*
X170969154Y-67697854D01*
X170949609Y-67808700D01*
X170617073Y-67750065D01*
X170284537Y-67691430D01*
X170343172Y-67358894D01*
X170401807Y-67026357D01*
X170512652Y-67045902D01*
G37*
G36*
X171764618Y-67723824D02*
G01*
X171875464Y-67743370D01*
X171816829Y-68075906D01*
X171758193Y-68408442D01*
X171647347Y-68388897D01*
X171536502Y-68369352D01*
X171516957Y-68480198D01*
X171497412Y-68591043D01*
X171386566Y-68571498D01*
X171275721Y-68551953D01*
X171256176Y-68662798D01*
X171236631Y-68773644D01*
X170904095Y-68715009D01*
X170571559Y-68656373D01*
X170591104Y-68545527D01*
X170610649Y-68434682D01*
X170499803Y-68415137D01*
X170388958Y-68395592D01*
X170408503Y-68284747D01*
X170428048Y-68173901D01*
X170538893Y-68193446D01*
X170649739Y-68212991D01*
X170630194Y-68323837D01*
X170610649Y-68434682D01*
X170943185Y-68493318D01*
X171275721Y-68551953D01*
X171295266Y-68441108D01*
X171314811Y-68330263D01*
X171425656Y-68349807D01*
X171536502Y-68369352D01*
X171595138Y-68036816D01*
X171653773Y-67704278D01*
X171764618Y-67723824D01*
G37*
G36*
X127118584Y-41267504D02*
G01*
X127154601Y-41366459D01*
X125949392Y-41805120D01*
X124744182Y-42243780D01*
X124387774Y-42641086D01*
X124031366Y-43038392D01*
X124070139Y-43176940D01*
X124095703Y-43304282D01*
X124093011Y-43411021D01*
X124061623Y-43508181D01*
X124056598Y-43518367D01*
X123987520Y-43612166D01*
X123890957Y-43687225D01*
X123778480Y-43737616D01*
X123661657Y-43757412D01*
X123598768Y-43752944D01*
X123520555Y-43730972D01*
X123438923Y-43695674D01*
X123416910Y-43683379D01*
X123366824Y-43649280D01*
X123331144Y-43611594D01*
X123300165Y-43557491D01*
X123270710Y-43490049D01*
X123263484Y-43466966D01*
X123232581Y-43368263D01*
X123229775Y-43296015D01*
X123435686Y-43296015D01*
X123444336Y-43383137D01*
X123449994Y-43399082D01*
X123501779Y-43481469D01*
X123573662Y-43532091D01*
X123656868Y-43549853D01*
X123742618Y-43533660D01*
X123822135Y-43482411D01*
X123852216Y-43449334D01*
X123885580Y-43375385D01*
X123887417Y-43290948D01*
X123861219Y-43208935D01*
X123810483Y-43142261D01*
X123760643Y-43110972D01*
X123669875Y-43092947D01*
X123584999Y-43108926D01*
X123513013Y-43152422D01*
X123460910Y-43216947D01*
X123435686Y-43296015D01*
X123229775Y-43296015D01*
X123228384Y-43260189D01*
X123259013Y-43153411D01*
X123300567Y-43074581D01*
X123336509Y-43022655D01*
X123377579Y-42985167D01*
X123437239Y-42951645D01*
X123487553Y-42929078D01*
X123567050Y-42897728D01*
X123626950Y-42883402D01*
X123684752Y-42883172D01*
X123727632Y-42888892D01*
X123833976Y-42906118D01*
X124206623Y-42493346D01*
X124579269Y-42080574D01*
X125830918Y-41624561D01*
X127082567Y-41168548D01*
X127118584Y-41267504D01*
G37*
G36*
X127442738Y-42158108D02*
G01*
X127478755Y-42257064D01*
X126609996Y-42573267D01*
X125741237Y-42889469D01*
X125384834Y-43286791D01*
X125028431Y-43684111D01*
X125064385Y-43818767D01*
X125084249Y-43914372D01*
X125085072Y-43992682D01*
X125072435Y-44056412D01*
X125019830Y-44174646D01*
X124936101Y-44271472D01*
X124828937Y-44341843D01*
X124706028Y-44380715D01*
X124575065Y-44383040D01*
X124574715Y-44382993D01*
X124473059Y-44353850D01*
X124373428Y-44298458D01*
X124371930Y-44297376D01*
X124309362Y-44246825D01*
X124269182Y-44196398D01*
X124237381Y-44127408D01*
X124230351Y-44108525D01*
X124227316Y-44096094D01*
X124195428Y-43965457D01*
X124196409Y-43938629D01*
X124399804Y-43938629D01*
X124413648Y-44028275D01*
X124465395Y-44103930D01*
X124541626Y-44154938D01*
X124638807Y-44180116D01*
X124729929Y-44164377D01*
X124810478Y-44108902D01*
X124837370Y-44077657D01*
X124874618Y-43996722D01*
X124876881Y-43908742D01*
X124847167Y-43824858D01*
X124788487Y-43756212D01*
X124742942Y-43728039D01*
X124643614Y-43700905D01*
X124553417Y-43713510D01*
X124477631Y-43763981D01*
X124425928Y-43840600D01*
X124399804Y-43938629D01*
X124196409Y-43938629D01*
X124200168Y-43835818D01*
X124244798Y-43718240D01*
X124308490Y-43632895D01*
X124392194Y-43568231D01*
X124499323Y-43521681D01*
X124615974Y-43496570D01*
X124728239Y-43496226D01*
X124802394Y-43514708D01*
X124818165Y-43518363D01*
X124836562Y-43514353D01*
X124861162Y-43499321D01*
X124895542Y-43469910D01*
X124943281Y-43422764D01*
X125007957Y-43354525D01*
X125093149Y-43261837D01*
X125202434Y-43141345D01*
X125213792Y-43128779D01*
X125579435Y-42724230D01*
X126493078Y-42391691D01*
X127406721Y-42059152D01*
X127442738Y-42158108D01*
G37*
G36*
X124448739Y-46796286D02*
G01*
X124611774Y-46816445D01*
X124767840Y-46844965D01*
X124901423Y-46879821D01*
X124928785Y-46889037D01*
X125177480Y-46999772D01*
X125407231Y-47146358D01*
X125613333Y-47325005D01*
X125791087Y-47531924D01*
X125869467Y-47647365D01*
X125920267Y-47742953D01*
X125973775Y-47867320D01*
X126025903Y-48008264D01*
X126072569Y-48153587D01*
X126109685Y-48291089D01*
X126133165Y-48408571D01*
X126137993Y-48449178D01*
X126140634Y-48579611D01*
X126130862Y-48734102D01*
X126110703Y-48897137D01*
X126082182Y-49053203D01*
X126047327Y-49186786D01*
X126038111Y-49214147D01*
X125929195Y-49459005D01*
X125785041Y-49686497D01*
X125610206Y-49890933D01*
X125409251Y-50066626D01*
X125289062Y-50149055D01*
X125200241Y-50196884D01*
X125083941Y-50248806D01*
X124952570Y-50300299D01*
X124818548Y-50346837D01*
X124694282Y-50383897D01*
X124592186Y-50406957D01*
X124573861Y-50409710D01*
X124322808Y-50424542D01*
X124068089Y-50405730D01*
X123819312Y-50355077D01*
X123586083Y-50274388D01*
X123425487Y-50194284D01*
X123213377Y-50050023D01*
X123018363Y-49875129D01*
X122850024Y-49678829D01*
X122772318Y-49565146D01*
X122721517Y-49469557D01*
X122668011Y-49345191D01*
X122645135Y-49283341D01*
X122615881Y-49204247D01*
X122569215Y-49058924D01*
X122532100Y-48921421D01*
X122508619Y-48803939D01*
X122503792Y-48763333D01*
X122501151Y-48632899D01*
X122502901Y-48605227D01*
X122667337Y-48605227D01*
X122685696Y-48841607D01*
X122716284Y-48996303D01*
X122790299Y-49230506D01*
X122896007Y-49443514D01*
X123036827Y-49641029D01*
X123214367Y-49827073D01*
X123300010Y-49901724D01*
X123384129Y-49963051D01*
X123480090Y-50019724D01*
X123601258Y-50080410D01*
X123615065Y-50086933D01*
X123754763Y-50147405D01*
X123889539Y-50196094D01*
X124005609Y-50228132D01*
X124027484Y-50232504D01*
X124285413Y-50258369D01*
X124542599Y-50243189D01*
X124794753Y-50187891D01*
X125037591Y-50093404D01*
X125258986Y-49965997D01*
X125332941Y-49909547D01*
X125419728Y-49833830D01*
X125504933Y-49751704D01*
X125538145Y-49716923D01*
X125613825Y-49630277D01*
X125675358Y-49546589D01*
X125731559Y-49452306D01*
X125791248Y-49333879D01*
X125801571Y-49312083D01*
X125897910Y-49071498D01*
X125955295Y-48838690D01*
X125974448Y-48607283D01*
X125956088Y-48370904D01*
X125925500Y-48216207D01*
X125851486Y-47982004D01*
X125745777Y-47768997D01*
X125604957Y-47571483D01*
X125427417Y-47385437D01*
X125341774Y-47310787D01*
X125257656Y-47249459D01*
X125161694Y-47192786D01*
X125040526Y-47132100D01*
X125026719Y-47125577D01*
X124786134Y-47029238D01*
X124553326Y-46971852D01*
X124321920Y-46952700D01*
X124085541Y-46971059D01*
X123930844Y-47001647D01*
X123696641Y-47075662D01*
X123483633Y-47181369D01*
X123286119Y-47322191D01*
X123100074Y-47499730D01*
X123025424Y-47585373D01*
X122964096Y-47669492D01*
X122907424Y-47765453D01*
X122846738Y-47886621D01*
X122840214Y-47900428D01*
X122743874Y-48141012D01*
X122686490Y-48373820D01*
X122667337Y-48605227D01*
X122502901Y-48605227D01*
X122510923Y-48478409D01*
X122531081Y-48315373D01*
X122559602Y-48159308D01*
X122594458Y-48025724D01*
X122603673Y-47998363D01*
X122714408Y-47749667D01*
X122860995Y-47519917D01*
X123039642Y-47313815D01*
X123246560Y-47136060D01*
X123362002Y-47057680D01*
X123457591Y-47006880D01*
X123581956Y-46953373D01*
X123722901Y-46901243D01*
X123868224Y-46854579D01*
X124005726Y-46817463D01*
X124123209Y-46793982D01*
X124163815Y-46789155D01*
X124294249Y-46786514D01*
X124448739Y-46796286D01*
G37*
G36*
X118844564Y-46657192D02*
G01*
X119104467Y-46826133D01*
X119369844Y-46962265D01*
X119636300Y-47064035D01*
X119899441Y-47129893D01*
X120154871Y-47158289D01*
X120265215Y-47158464D01*
X120484778Y-47160800D01*
X120714865Y-47181118D01*
X120947706Y-47217502D01*
X121175528Y-47268034D01*
X121390562Y-47330800D01*
X121585034Y-47403881D01*
X121751173Y-47485361D01*
X121850690Y-47549481D01*
X121933797Y-47622764D01*
X122016508Y-47715634D01*
X122088112Y-47814506D01*
X122137904Y-47905793D01*
X122144347Y-47922065D01*
X122166322Y-48027989D01*
X122167072Y-48153774D01*
X122148966Y-48286563D01*
X122114377Y-48413498D01*
X122065675Y-48521722D01*
X122022779Y-48581299D01*
X121943865Y-48648712D01*
X121831844Y-48719151D01*
X121695171Y-48788795D01*
X121542296Y-48853821D01*
X121381675Y-48910405D01*
X121221765Y-48954724D01*
X121173320Y-48965445D01*
X121010813Y-48991101D01*
X120877820Y-48995254D01*
X120776448Y-48978097D01*
X120708807Y-48939830D01*
X120693052Y-48920820D01*
X120671290Y-48898848D01*
X120636312Y-48888451D01*
X120577911Y-48888116D01*
X120510718Y-48893745D01*
X120356045Y-48902637D01*
X120236130Y-48893589D01*
X120147074Y-48865399D01*
X120084978Y-48816858D01*
X120047235Y-48750334D01*
X120030056Y-48711769D01*
X120006752Y-48689954D01*
X119965468Y-48679006D01*
X119894350Y-48673042D01*
X119891131Y-48672848D01*
X119795929Y-48659272D01*
X119695837Y-48633141D01*
X119646169Y-48614561D01*
X119577902Y-48581104D01*
X119537196Y-48549039D01*
X119511512Y-48506858D01*
X119501680Y-48481969D01*
X119485542Y-48421968D01*
X119492760Y-48378548D01*
X119513831Y-48346010D01*
X119544697Y-48306049D01*
X119561912Y-48282996D01*
X119562219Y-48282540D01*
X119549404Y-48270964D01*
X119511945Y-48257744D01*
X119466363Y-48238608D01*
X119400355Y-48202742D01*
X119327874Y-48157753D01*
X119324896Y-48155776D01*
X119224859Y-48074984D01*
X119164345Y-47992744D01*
X119144243Y-47910697D01*
X119157808Y-47846406D01*
X119170465Y-47807653D01*
X119164727Y-47776140D01*
X119136114Y-47734880D01*
X119124713Y-47720871D01*
X119054442Y-47620843D01*
X118985144Y-47496274D01*
X118920510Y-47356798D01*
X118877326Y-47245726D01*
X118864233Y-47212051D01*
X118820004Y-47071671D01*
X118807233Y-47015021D01*
X118974520Y-47015021D01*
X118993276Y-47081840D01*
X119029194Y-47183821D01*
X119031324Y-47189676D01*
X119110252Y-47377776D01*
X119197066Y-47531413D01*
X119289660Y-47646874D01*
X119291602Y-47648813D01*
X119334220Y-47694287D01*
X119352746Y-47728467D01*
X119354445Y-47768194D01*
X119352078Y-47789093D01*
X119341533Y-47843314D01*
X119328362Y-47878508D01*
X119327470Y-47879735D01*
X119316000Y-47912558D01*
X119334100Y-47948320D01*
X119384514Y-47989278D01*
X119469985Y-48037686D01*
X119586701Y-48092874D01*
X119687171Y-48138178D01*
X119755306Y-48170918D01*
X119797272Y-48195623D01*
X119819237Y-48216819D01*
X119827360Y-48239033D01*
X119827814Y-48266792D01*
X119827685Y-48269807D01*
X119816931Y-48322530D01*
X119782339Y-48352377D01*
X119762915Y-48360459D01*
X119700947Y-48391294D01*
X119672461Y-48423410D01*
X119680788Y-48452250D01*
X119690631Y-48459390D01*
X119747104Y-48479377D01*
X119835209Y-48495127D01*
X119944565Y-48505573D01*
X120064797Y-48509646D01*
X120159494Y-48507708D01*
X120345307Y-48498989D01*
X120275853Y-48596466D01*
X120239008Y-48652193D01*
X120216286Y-48694470D01*
X120212367Y-48710345D01*
X120234959Y-48720593D01*
X120286315Y-48728983D01*
X120326761Y-48732137D01*
X120390914Y-48733340D01*
X120461556Y-48729949D01*
X120548990Y-48721066D01*
X120663521Y-48705784D01*
X120717733Y-48697899D01*
X120757890Y-48703380D01*
X120783698Y-48740941D01*
X120786548Y-48748413D01*
X120805821Y-48788274D01*
X120833675Y-48814588D01*
X120876342Y-48828053D01*
X120940056Y-48829375D01*
X121031047Y-48819256D01*
X121155550Y-48798398D01*
X121183875Y-48793211D01*
X121239252Y-48778207D01*
X121321073Y-48750194D01*
X121419806Y-48713069D01*
X121525913Y-48670729D01*
X121629860Y-48627073D01*
X121722113Y-48585997D01*
X121793135Y-48551399D01*
X121831988Y-48528288D01*
X121914661Y-48441517D01*
X121968536Y-48329058D01*
X121995472Y-48186927D01*
X121996397Y-48175763D01*
X122000328Y-48085741D01*
X121993922Y-48020094D01*
X121974731Y-47961816D01*
X121961584Y-47934088D01*
X121888992Y-47820885D01*
X121790853Y-47723130D01*
X121661140Y-47635676D01*
X121540098Y-47574016D01*
X121251193Y-47462929D01*
X120939584Y-47384287D01*
X120610663Y-47339150D01*
X120290163Y-47328224D01*
X120178536Y-47327570D01*
X120066720Y-47323092D01*
X119970913Y-47315612D01*
X119927234Y-47309919D01*
X119724088Y-47265116D01*
X119507327Y-47197896D01*
X119294347Y-47114351D01*
X119105169Y-47022023D01*
X119038248Y-46986867D01*
X118995302Y-46971403D01*
X118974627Y-46979498D01*
X118974520Y-47015021D01*
X118807233Y-47015021D01*
X118791513Y-46945294D01*
X118782455Y-46842558D01*
X118783053Y-46828997D01*
X118792285Y-46762906D01*
X118808239Y-46704730D01*
X118826903Y-46665686D01*
X118844260Y-46656981D01*
X118844564Y-46657192D01*
G37*
G36*
X127321202Y-43605930D02*
G01*
X127371044Y-43640316D01*
X127420723Y-43685142D01*
X127479091Y-43763419D01*
X127538368Y-43873650D01*
X127595160Y-44005886D01*
X127646078Y-44150178D01*
X127687727Y-44296578D01*
X127716717Y-44435136D01*
X127729654Y-44555905D01*
X127729781Y-44591520D01*
X127730133Y-44648317D01*
X127741078Y-44679338D01*
X127770340Y-44700834D01*
X127785454Y-44708668D01*
X127847585Y-44761970D01*
X127879397Y-44842291D01*
X127880721Y-44947234D01*
X127851390Y-45074405D01*
X127817401Y-45164143D01*
X127789278Y-45231461D01*
X127770113Y-45280628D01*
X127763682Y-45301904D01*
X127763879Y-45302123D01*
X127843327Y-45317142D01*
X127892923Y-45344811D01*
X127924670Y-45393040D01*
X127932733Y-45413317D01*
X127947436Y-45466680D01*
X127945108Y-45514485D01*
X127923539Y-45573602D01*
X127907276Y-45607763D01*
X127858517Y-45688186D01*
X127794701Y-45770290D01*
X127757090Y-45809873D01*
X127705424Y-45860923D01*
X127680002Y-45896185D01*
X127675526Y-45927782D01*
X127686698Y-45967845D01*
X127687316Y-45969572D01*
X127701121Y-46048278D01*
X127683261Y-46125438D01*
X127631532Y-46204469D01*
X127543730Y-46288790D01*
X127424161Y-46377406D01*
X127355661Y-46426617D01*
X127317611Y-46462158D01*
X127303705Y-46490928D01*
X127304423Y-46508311D01*
X127296959Y-46573552D01*
X127252796Y-46646632D01*
X127175461Y-46722882D01*
X127101620Y-46776860D01*
X127010201Y-46829697D01*
X126893361Y-46886947D01*
X126761073Y-46944723D01*
X126623308Y-46999145D01*
X126490038Y-47046322D01*
X126371234Y-47082370D01*
X126276869Y-47103404D01*
X126256895Y-47106003D01*
X126140920Y-47112997D01*
X126048406Y-47105356D01*
X125962474Y-47080579D01*
X125900104Y-47053108D01*
X125821886Y-47003339D01*
X125737127Y-46930601D01*
X125656408Y-46846008D01*
X125590307Y-46760675D01*
X125549404Y-46685718D01*
X125548771Y-46684003D01*
X125547908Y-46680393D01*
X125525651Y-46587251D01*
X125514429Y-46467298D01*
X125515323Y-46374848D01*
X125680309Y-46374848D01*
X125682169Y-46509612D01*
X125710961Y-46621047D01*
X125771019Y-46721373D01*
X125824844Y-46782323D01*
X125933900Y-46874957D01*
X126042712Y-46927922D01*
X126156151Y-46943355D01*
X126187021Y-46941485D01*
X126248419Y-46936259D01*
X126292776Y-46933883D01*
X126300929Y-46933952D01*
X126338025Y-46926555D01*
X126404899Y-46904336D01*
X126493389Y-46870781D01*
X126595329Y-46829362D01*
X126702557Y-46783563D01*
X126806911Y-46736862D01*
X126900227Y-46692737D01*
X126974342Y-46654670D01*
X127018223Y-46628222D01*
X127085616Y-46576661D01*
X127121548Y-46535712D01*
X127131313Y-46495401D01*
X127120200Y-46445758D01*
X127118145Y-46439898D01*
X127112272Y-46392035D01*
X127139979Y-46360393D01*
X127249529Y-46291992D01*
X127330906Y-46238423D01*
X127392582Y-46193751D01*
X127443034Y-46152044D01*
X127461490Y-46135308D01*
X127505493Y-46090448D01*
X127531519Y-46055943D01*
X127534870Y-46044413D01*
X127512452Y-46029899D01*
X127462517Y-46012308D01*
X127430422Y-46003765D01*
X127371836Y-45987054D01*
X127333790Y-45971185D01*
X127326644Y-45964957D01*
X127339564Y-45945987D01*
X127378791Y-45909681D01*
X127436400Y-45863251D01*
X127448279Y-45854248D01*
X127575352Y-45750001D01*
X127678257Y-45647382D01*
X127750085Y-45553373D01*
X127756122Y-45543287D01*
X127776374Y-45501566D01*
X127771181Y-45481824D01*
X127753468Y-45475003D01*
X127707406Y-45475270D01*
X127655774Y-45487693D01*
X127606203Y-45496472D01*
X127563631Y-45476664D01*
X127540499Y-45455889D01*
X127485988Y-45402312D01*
X127543370Y-45314762D01*
X127586531Y-45241117D01*
X127629380Y-45154908D01*
X127667898Y-45066070D01*
X127698076Y-44984543D01*
X127715900Y-44920263D01*
X127717521Y-44883604D01*
X127687521Y-44845464D01*
X127668525Y-44834733D01*
X127628621Y-44810274D01*
X127588365Y-44773571D01*
X127557365Y-44729477D01*
X127554423Y-44683895D01*
X127558216Y-44665171D01*
X127563799Y-44589896D01*
X127554639Y-44486132D01*
X127532519Y-44364133D01*
X127499222Y-44234158D01*
X127465157Y-44129731D01*
X127426036Y-44024357D01*
X127396690Y-43956866D01*
X127373463Y-43925217D01*
X127352699Y-43927372D01*
X127330739Y-43961288D01*
X127303931Y-44024925D01*
X127299189Y-44037104D01*
X127231433Y-44192618D01*
X127146064Y-44359732D01*
X127053512Y-44518616D01*
X127013084Y-44580985D01*
X126907598Y-44724082D01*
X126790832Y-44853915D01*
X126651278Y-44982785D01*
X126586965Y-45036440D01*
X126408104Y-45194398D01*
X126240987Y-45365691D01*
X126089092Y-45545179D01*
X125955898Y-45727729D01*
X125844881Y-45908207D01*
X125759520Y-46081479D01*
X125703294Y-46242408D01*
X125680309Y-46374848D01*
X125515323Y-46374848D01*
X125515645Y-46341499D01*
X125529845Y-46227219D01*
X125533896Y-46208903D01*
X125586183Y-46051518D01*
X125669233Y-45877698D01*
X125778392Y-45693819D01*
X125909009Y-45506250D01*
X126056427Y-45321366D01*
X126215996Y-45145540D01*
X126383064Y-44985142D01*
X126497865Y-44888699D01*
X126674737Y-44729354D01*
X126830756Y-44545937D01*
X126967993Y-44334939D01*
X127088523Y-44092850D01*
X127194415Y-43816160D01*
X127262861Y-43593182D01*
X127281721Y-43588225D01*
X127321202Y-43605930D01*
G37*
D12*
%TO.C,S2*%
X118567500Y-69580000D02*
X118567500Y-82080000D01*
X118567500Y-82080000D02*
X131067500Y-82080000D01*
X131067500Y-69580000D02*
X118567500Y-69580000D01*
X131067500Y-82080000D02*
X131067500Y-69580000D01*
D10*
X131667500Y-79640000D02*
G75*
G02*
X131467500Y-79640000I-100000J0D01*
G01*
X131467500Y-79640000D02*
G75*
G02*
X131667500Y-79640000I100000J0D01*
G01*
D12*
%TO.C,U2*%
X133500000Y-63695000D02*
X159500000Y-63695000D01*
X133500000Y-89695000D02*
X133500000Y-63695000D01*
X139500000Y-87695000D02*
X139500000Y-89695000D01*
X139500000Y-89695000D02*
X133500000Y-89695000D01*
X153500000Y-87695000D02*
X139500000Y-87695000D01*
X153500000Y-89695000D02*
X153500000Y-87695000D01*
X159500000Y-63695000D02*
X159500000Y-89695000D01*
X159500000Y-89695000D02*
X153500000Y-89695000D01*
D10*
X142600000Y-63195000D02*
G75*
G02*
X142400000Y-63195000I-100000J0D01*
G01*
X142400000Y-63195000D02*
G75*
G02*
X142600000Y-63195000I100000J0D01*
G01*
D11*
%TO.C,G\u002A\u002A\u002A*%
G36*
X169595666Y-49128821D02*
G01*
X169633982Y-49134925D01*
X169823646Y-49187450D01*
X169912018Y-49249953D01*
X169912826Y-49260038D01*
X169968490Y-49350122D01*
X170058910Y-49406707D01*
X170144982Y-49471014D01*
X170176631Y-49587482D01*
X170159320Y-49799921D01*
X170130106Y-49978084D01*
X170072292Y-50261072D01*
X170012610Y-50415017D01*
X169930944Y-50479220D01*
X169867781Y-50490653D01*
X169721753Y-50542709D01*
X169676923Y-50631500D01*
X169754879Y-50702230D01*
X169781948Y-50708526D01*
X169916644Y-50790287D01*
X170071085Y-50955678D01*
X170196175Y-51142233D01*
X170242817Y-51287487D01*
X170241993Y-51293846D01*
X170294233Y-51390138D01*
X170347438Y-51410046D01*
X170468463Y-51499647D01*
X170529418Y-51614080D01*
X170625563Y-51767967D01*
X170711399Y-51818113D01*
X170790752Y-51901861D01*
X170784243Y-52118901D01*
X170782078Y-52131480D01*
X170769008Y-52328065D01*
X170803502Y-52433564D01*
X170814001Y-52438015D01*
X170868689Y-52519896D01*
X170867045Y-52624760D01*
X170818884Y-52736888D01*
X170698589Y-52752630D01*
X170570330Y-52722894D01*
X170386441Y-52648787D01*
X170323331Y-52525573D01*
X170325605Y-52373390D01*
X170313532Y-52167419D01*
X170220960Y-52077883D01*
X170185781Y-52069324D01*
X170061045Y-51983905D01*
X170053708Y-51874090D01*
X170024489Y-51727878D01*
X169955425Y-51684815D01*
X169828193Y-51592827D01*
X169801796Y-51528767D01*
X169716352Y-51399441D01*
X169659706Y-51374753D01*
X169592443Y-51403291D01*
X169532288Y-51532158D01*
X169469977Y-51787136D01*
X169424561Y-52029122D01*
X169369082Y-52367748D01*
X169350424Y-52577713D01*
X169370575Y-52696068D01*
X169431520Y-52759865D01*
X169464639Y-52776984D01*
X169585579Y-52883378D01*
X169603889Y-52962410D01*
X169647849Y-53098721D01*
X169735091Y-53193474D01*
X169841648Y-53365788D01*
X169836890Y-53591299D01*
X169829099Y-53809695D01*
X169916360Y-53927588D01*
X169946736Y-53943485D01*
X170021417Y-53994665D01*
X170056699Y-54084985D01*
X170054065Y-54250266D01*
X170014999Y-54526327D01*
X169979461Y-54733038D01*
X169921801Y-55092252D01*
X169902742Y-55315723D01*
X169922118Y-55432545D01*
X169975253Y-55471113D01*
X170096279Y-55560714D01*
X170157234Y-55675148D01*
X170178413Y-55768355D01*
X170142585Y-55813479D01*
X170017622Y-55815337D01*
X169771399Y-55778754D01*
X169630481Y-55754212D01*
X169043884Y-55650779D01*
X169196684Y-54784206D01*
X169263630Y-54376983D01*
X169294153Y-54106359D01*
X169289357Y-53943805D01*
X169250343Y-53860798D01*
X169232876Y-53847585D01*
X169159414Y-53716515D01*
X169160319Y-53527713D01*
X169144048Y-53278942D01*
X169058311Y-53163137D01*
X168878166Y-53052554D01*
X168765637Y-53079726D01*
X168694366Y-53258055D01*
X168674341Y-53358375D01*
X168615199Y-53588085D01*
X168526698Y-53692450D01*
X168439706Y-53713907D01*
X168358931Y-53733343D01*
X168297842Y-53796403D01*
X168245220Y-53933271D01*
X168189846Y-54174126D01*
X168120501Y-54549145D01*
X168112598Y-54593881D01*
X167959939Y-55459651D01*
X167467463Y-55372814D01*
X167195063Y-55319719D01*
X167057489Y-55271226D01*
X167021936Y-55207980D01*
X167048569Y-55125666D01*
X167144721Y-54979324D01*
X167203457Y-54932971D01*
X167254311Y-54840169D01*
X167319193Y-54621013D01*
X167386648Y-54316556D01*
X167408863Y-54196774D01*
X167472520Y-53854151D01*
X167524003Y-53647553D01*
X167576834Y-53545633D01*
X167644532Y-53517044D01*
X167699725Y-53522366D01*
X167819061Y-53510780D01*
X167887808Y-53394592D01*
X167919320Y-53252133D01*
X167982923Y-53037050D01*
X168091370Y-52947814D01*
X168146605Y-52938292D01*
X168297514Y-52875106D01*
X168342769Y-52800936D01*
X168433570Y-52694872D01*
X168538934Y-52663578D01*
X168627566Y-52640568D01*
X168691994Y-52566334D01*
X168746226Y-52407315D01*
X168804269Y-52129958D01*
X168836639Y-51950366D01*
X168959893Y-51251357D01*
X168668061Y-51199900D01*
X168470191Y-51178318D01*
X168377136Y-51236997D01*
X168328726Y-51418067D01*
X168324773Y-51440273D01*
X168269889Y-51638908D01*
X168181936Y-51707042D01*
X168111837Y-51703632D01*
X167981276Y-51728835D01*
X167893996Y-51883444D01*
X167876449Y-51941538D01*
X167802342Y-52125427D01*
X167679128Y-52188537D01*
X167526945Y-52186263D01*
X167333493Y-52149568D01*
X167272681Y-52067265D01*
X167275714Y-52026449D01*
X167368792Y-51908113D01*
X167474525Y-51874085D01*
X167612188Y-51813169D01*
X167688075Y-51632646D01*
X167697850Y-51582695D01*
X167756703Y-51382492D01*
X167833504Y-51271416D01*
X167839192Y-51268680D01*
X167920856Y-51166047D01*
X167972134Y-51002310D01*
X168087778Y-50786904D01*
X168317200Y-50621388D01*
X168606087Y-50535269D01*
X168823993Y-50539613D01*
X169030453Y-50538607D01*
X169099564Y-50459244D01*
X169048010Y-50345129D01*
X168954856Y-50304769D01*
X168865453Y-50270466D01*
X168829083Y-50182392D01*
X168839993Y-50000469D01*
X168877686Y-49767276D01*
X168935735Y-49481140D01*
X168994729Y-49324321D01*
X169074371Y-49257841D01*
X169141725Y-49244983D01*
X169288533Y-49202820D01*
X169329164Y-49157122D01*
X169411077Y-49121359D01*
X169595666Y-49128821D01*
G37*
%TD*%
M02*
