%TF.GenerationSoftware,KiCad,Pcbnew,9.0.2*%
%TF.CreationDate,2025-08-01T16:53:23-07:00*%
%TF.ProjectId,bitboy,62697462-6f79-42e6-9b69-6361645f7063,rev?*%
%TF.SameCoordinates,Original*%
%TF.FileFunction,AssemblyDrawing,Top*%
%FSLAX46Y46*%
G04 Gerber Fmt 4.6, Leading zero omitted, Abs format (unit mm)*
G04 Created by KiCad (PCBNEW 9.0.2) date 2025-08-01 16:53:23*
%MOMM*%
%LPD*%
G01*
G04 APERTURE LIST*
%ADD10C,0.127000*%
%ADD11C,0.200000*%
G04 APERTURE END LIST*
D10*
%TO.C,S1*%
X162000000Y-69530000D02*
X174500000Y-69530000D01*
X162000000Y-82030000D02*
X162000000Y-69530000D01*
X174500000Y-69530000D02*
X174500000Y-82030000D01*
X174500000Y-82030000D02*
X162000000Y-82030000D01*
D11*
X161600000Y-71970000D02*
G75*
G02*
X161400000Y-71970000I-100000J0D01*
G01*
X161400000Y-71970000D02*
G75*
G02*
X161600000Y-71970000I100000J0D01*
G01*
D10*
%TO.C,S2*%
X118567500Y-69580000D02*
X131067500Y-69580000D01*
X118567500Y-82080000D02*
X118567500Y-69580000D01*
X131067500Y-69580000D02*
X131067500Y-82080000D01*
X131067500Y-82080000D02*
X118567500Y-82080000D01*
D11*
X131667500Y-79640000D02*
G75*
G02*
X131467500Y-79640000I-100000J0D01*
G01*
X131467500Y-79640000D02*
G75*
G02*
X131667500Y-79640000I100000J0D01*
G01*
D10*
%TO.C,U2*%
X133500000Y-63695000D02*
X159500000Y-63695000D01*
X133500000Y-89695000D02*
X133500000Y-63695000D01*
X139500000Y-87695000D02*
X153500000Y-87695000D01*
X139500000Y-89695000D02*
X133500000Y-89695000D01*
X139500000Y-89695000D02*
X139500000Y-87695000D01*
X153500000Y-87695000D02*
X153500000Y-89695000D01*
X159500000Y-63695000D02*
X159500000Y-89695000D01*
X159500000Y-89695000D02*
X153500000Y-89695000D01*
D11*
X142600000Y-63195000D02*
G75*
G02*
X142400000Y-63195000I-100000J0D01*
G01*
X142400000Y-63195000D02*
G75*
G02*
X142600000Y-63195000I100000J0D01*
G01*
%TD*%
M02*
