%TF.GenerationSoftware,KiCad,Pcbnew,9.0.2*%
%TF.CreationDate,2025-08-01T16:53:22-07:00*%
%TF.ProjectId,bitboy,62697462-6f79-42e6-9b69-6361645f7063,rev?*%
%TF.SameCoordinates,Original*%
%TF.FileFunction,Paste,Bot*%
%TF.FilePolarity,Positive*%
%FSLAX46Y46*%
G04 Gerber Fmt 4.6, Leading zero omitted, Abs format (unit mm)*
G04 Created by KiCad (PCBNEW 9.0.2) date 2025-08-01 16:53:22*
%MOMM*%
%LPD*%
G01*
G04 APERTURE LIST*
G04 Aperture macros list*
%AMRoundRect*
0 Rectangle with rounded corners*
0 $1 Rounding radius*
0 $2 $3 $4 $5 $6 $7 $8 $9 X,Y pos of 4 corners*
0 Add a 4 corners polygon primitive as box body*
4,1,4,$2,$3,$4,$5,$6,$7,$8,$9,$2,$3,0*
0 Add four circle primitives for the rounded corners*
1,1,$1+$1,$2,$3*
1,1,$1+$1,$4,$5*
1,1,$1+$1,$6,$7*
1,1,$1+$1,$8,$9*
0 Add four rect primitives between the rounded corners*
20,1,$1+$1,$2,$3,$4,$5,0*
20,1,$1+$1,$4,$5,$6,$7,0*
20,1,$1+$1,$6,$7,$8,$9,0*
20,1,$1+$1,$8,$9,$2,$3,0*%
G04 Aperture macros list end*
%ADD10RoundRect,0.250000X-0.500000X0.500000X-0.500000X-0.500000X0.500000X-0.500000X0.500000X0.500000X0*%
%ADD11RoundRect,0.500000X-0.500000X1.000000X-0.500000X-1.000000X0.500000X-1.000000X0.500000X1.000000X0*%
%ADD12RoundRect,0.250000X-0.400000X0.900000X-0.400000X-0.900000X0.400000X-0.900000X0.400000X0.900000X0*%
%ADD13C,1.300000*%
%ADD14RoundRect,0.087500X0.207500X0.087500X-0.207500X0.087500X-0.207500X-0.087500X0.207500X-0.087500X0*%
%ADD15RoundRect,0.087500X0.087500X0.207500X-0.087500X0.207500X-0.087500X-0.207500X0.087500X-0.207500X0*%
G04 APERTURE END LIST*
D10*
%TO.C,U1*%
X148630000Y-52920000D03*
X146630000Y-52920000D03*
X148630000Y-54920000D03*
X146630000Y-54920000D03*
D11*
X139410000Y-43320000D03*
X141950000Y-43320000D03*
X144490000Y-43320000D03*
X147030000Y-43320000D03*
X149570000Y-43320000D03*
X152110000Y-43320000D03*
X154650000Y-43320000D03*
X154650000Y-60320000D03*
X152110000Y-60320000D03*
X149570000Y-60320000D03*
X147030000Y-60320000D03*
X144490000Y-60320000D03*
X141950000Y-60320000D03*
X139410000Y-60320000D03*
D12*
X146630000Y-47320000D03*
X144730000Y-47320000D03*
D13*
X138410000Y-50550000D03*
X140990000Y-50550000D03*
X143530000Y-50550000D03*
X143530000Y-53090000D03*
X140990000Y-53090000D03*
X138410000Y-53090000D03*
%TD*%
D14*
%TO.C,U3*%
X147565000Y-76225000D03*
X147565000Y-76725000D03*
X147565000Y-77225000D03*
X147565000Y-77725000D03*
D15*
X146900000Y-77890000D03*
X146400000Y-77890000D03*
X145900000Y-77890000D03*
D14*
X145235000Y-77725000D03*
X145235000Y-77225000D03*
X145235000Y-76725000D03*
X145235000Y-76225000D03*
D15*
X145900000Y-76060000D03*
X146400000Y-76060000D03*
X146900000Y-76060000D03*
%TD*%
M02*
