%TF.GenerationSoftware,KiCad,Pcbnew,9.0.2*%
%TF.CreationDate,2025-08-01T16:53:22-07:00*%
%TF.ProjectId,bitboy,62697462-6f79-42e6-9b69-6361645f7063,rev?*%
%TF.SameCoordinates,Original*%
%TF.FileFunction,Legend,Bot*%
%TF.FilePolarity,Positive*%
%FSLAX46Y46*%
G04 Gerber Fmt 4.6, Leading zero omitted, Abs format (unit mm)*
G04 Created by KiCad (PCBNEW 9.0.2) date 2025-08-01 16:53:22*
%MOMM*%
%LPD*%
G01*
G04 APERTURE LIST*
%ADD10C,0.127000*%
%ADD11C,0.120000*%
%ADD12C,0.200000*%
G04 APERTURE END LIST*
D10*
%TO.C,R1*%
X162580000Y-57720000D02*
X172580000Y-57720000D01*
X162580000Y-62720000D02*
X162580000Y-57720000D01*
X172580000Y-57720000D02*
X172580000Y-62720000D01*
X172580000Y-62720000D02*
X162580000Y-62720000D01*
D11*
%TO.C,U1*%
X135330000Y-47820000D02*
X135330000Y-55820000D01*
X135330000Y-55820000D02*
X136530000Y-55820000D01*
X136530000Y-47820000D02*
X135330000Y-47820000D01*
X136530000Y-47820000D02*
X136530000Y-45220000D01*
X136530000Y-58420000D02*
X136530000Y-55820000D01*
X157530000Y-45120000D02*
X157530000Y-58520000D01*
X136530001Y-45219532D02*
G75*
G02*
X138025320Y-43007108I2270232J77145D01*
G01*
X138028536Y-60624034D02*
G75*
G02*
X136529999Y-58420000I776364J2139304D01*
G01*
X156030000Y-43020000D02*
G75*
G02*
X157530000Y-45120000I-823747J-2174105D01*
G01*
X157530000Y-58520000D02*
G75*
G02*
X156030001Y-60620004I-2323760J74110D01*
G01*
D10*
%TO.C,U3*%
X144900000Y-78225000D02*
X145410000Y-78225000D01*
X145410000Y-75725000D02*
X144900000Y-75725000D01*
X147900000Y-75725000D02*
X147390000Y-75725000D01*
X147900000Y-78225000D02*
X147390000Y-78225000D01*
D12*
X148500000Y-76175000D02*
G75*
G02*
X148300000Y-76175000I-100000J0D01*
G01*
X148300000Y-76175000D02*
G75*
G02*
X148500000Y-76175000I100000J0D01*
G01*
D10*
%TO.C,R2*%
X121070000Y-58060000D02*
X131070000Y-58060000D01*
X121070000Y-63060000D02*
X121070000Y-58060000D01*
X131070000Y-58060000D02*
X131070000Y-63060000D01*
X131070000Y-63060000D02*
X121070000Y-63060000D01*
%TD*%
M02*
