%TF.GenerationSoftware,KiCad,Pcbnew,9.0.2*%
%TF.CreationDate,2025-08-01T16:53:23-07:00*%
%TF.ProjectId,bitboy,62697462-6f79-42e6-9b69-6361645f7063,rev?*%
%TF.SameCoordinates,Original*%
%TF.FileFunction,AssemblyDrawing,Bot*%
%FSLAX46Y46*%
G04 Gerber Fmt 4.6, Leading zero omitted, Abs format (unit mm)*
G04 Created by KiCad (PCBNEW 9.0.2) date 2025-08-01 16:53:23*
%MOMM*%
%LPD*%
G01*
G04 APERTURE LIST*
%ADD10C,0.150000*%
%ADD11C,0.148077*%
%ADD12C,0.120000*%
%ADD13C,0.127000*%
%ADD14C,0.100000*%
%ADD15C,0.200000*%
G04 APERTURE END LIST*
D10*
X128827213Y-83649819D02*
X128827213Y-82649819D01*
X128827213Y-82649819D02*
X128255785Y-83649819D01*
X128255785Y-83649819D02*
X128255785Y-82649819D01*
X127208166Y-83554580D02*
X127255785Y-83602200D01*
X127255785Y-83602200D02*
X127398642Y-83649819D01*
X127398642Y-83649819D02*
X127493880Y-83649819D01*
X127493880Y-83649819D02*
X127636737Y-83602200D01*
X127636737Y-83602200D02*
X127731975Y-83506961D01*
X127731975Y-83506961D02*
X127779594Y-83411723D01*
X127779594Y-83411723D02*
X127827213Y-83221247D01*
X127827213Y-83221247D02*
X127827213Y-83078390D01*
X127827213Y-83078390D02*
X127779594Y-82887914D01*
X127779594Y-82887914D02*
X127731975Y-82792676D01*
X127731975Y-82792676D02*
X127636737Y-82697438D01*
X127636737Y-82697438D02*
X127493880Y-82649819D01*
X127493880Y-82649819D02*
X127398642Y-82649819D01*
X127398642Y-82649819D02*
X127255785Y-82697438D01*
X127255785Y-82697438D02*
X127208166Y-82745057D01*
X126827213Y-83364104D02*
X126351023Y-83364104D01*
X126922451Y-83649819D02*
X126589118Y-82649819D01*
X126589118Y-82649819D02*
X126255785Y-83649819D01*
X125970070Y-82745057D02*
X125922451Y-82697438D01*
X125922451Y-82697438D02*
X125827213Y-82649819D01*
X125827213Y-82649819D02*
X125589118Y-82649819D01*
X125589118Y-82649819D02*
X125493880Y-82697438D01*
X125493880Y-82697438D02*
X125446261Y-82745057D01*
X125446261Y-82745057D02*
X125398642Y-82840295D01*
X125398642Y-82840295D02*
X125398642Y-82935533D01*
X125398642Y-82935533D02*
X125446261Y-83078390D01*
X125446261Y-83078390D02*
X126017689Y-83649819D01*
X126017689Y-83649819D02*
X125398642Y-83649819D01*
D11*
X168023519Y-57101267D02*
X168220955Y-56819215D01*
X168361981Y-57101267D02*
X168361981Y-56508959D01*
X168361981Y-56508959D02*
X168136340Y-56508959D01*
X168136340Y-56508959D02*
X168079929Y-56537164D01*
X168079929Y-56537164D02*
X168051724Y-56565369D01*
X168051724Y-56565369D02*
X168023519Y-56621779D01*
X168023519Y-56621779D02*
X168023519Y-56706395D01*
X168023519Y-56706395D02*
X168051724Y-56762805D01*
X168051724Y-56762805D02*
X168079929Y-56791010D01*
X168079929Y-56791010D02*
X168136340Y-56819215D01*
X168136340Y-56819215D02*
X168361981Y-56819215D01*
D10*
X148984819Y-51058095D02*
X149794342Y-51058095D01*
X149794342Y-51058095D02*
X149889580Y-51105714D01*
X149889580Y-51105714D02*
X149937200Y-51153333D01*
X149937200Y-51153333D02*
X149984819Y-51248571D01*
X149984819Y-51248571D02*
X149984819Y-51439047D01*
X149984819Y-51439047D02*
X149937200Y-51534285D01*
X149937200Y-51534285D02*
X149889580Y-51581904D01*
X149889580Y-51581904D02*
X149794342Y-51629523D01*
X149794342Y-51629523D02*
X148984819Y-51629523D01*
X149984819Y-52629523D02*
X149984819Y-52058095D01*
X149984819Y-52343809D02*
X148984819Y-52343809D01*
X148984819Y-52343809D02*
X149127676Y-52248571D01*
X149127676Y-52248571D02*
X149222914Y-52153333D01*
X149222914Y-52153333D02*
X149270533Y-52058095D01*
D12*
X144190628Y-79186017D02*
X144190628Y-78706017D01*
X143687771Y-79140302D02*
X143710628Y-79163160D01*
X143710628Y-79163160D02*
X143779200Y-79186017D01*
X143779200Y-79186017D02*
X143824914Y-79186017D01*
X143824914Y-79186017D02*
X143893485Y-79163160D01*
X143893485Y-79163160D02*
X143939200Y-79117445D01*
X143939200Y-79117445D02*
X143962057Y-79071731D01*
X143962057Y-79071731D02*
X143984914Y-78980302D01*
X143984914Y-78980302D02*
X143984914Y-78911731D01*
X143984914Y-78911731D02*
X143962057Y-78820302D01*
X143962057Y-78820302D02*
X143939200Y-78774588D01*
X143939200Y-78774588D02*
X143893485Y-78728874D01*
X143893485Y-78728874D02*
X143824914Y-78706017D01*
X143824914Y-78706017D02*
X143779200Y-78706017D01*
X143779200Y-78706017D02*
X143710628Y-78728874D01*
X143710628Y-78728874D02*
X143687771Y-78751731D01*
X143482057Y-79186017D02*
X143482057Y-78706017D01*
X143482057Y-78706017D02*
X143322057Y-79048874D01*
X143322057Y-79048874D02*
X143162057Y-78706017D01*
X143162057Y-78706017D02*
X143162057Y-79186017D01*
X142933486Y-79003160D02*
X142567772Y-79003160D01*
X142133486Y-78866017D02*
X142133486Y-79186017D01*
X142247771Y-78683160D02*
X142362057Y-79026017D01*
X142362057Y-79026017D02*
X142064914Y-79026017D01*
X141904914Y-78751731D02*
X141882057Y-78728874D01*
X141882057Y-78728874D02*
X141836343Y-78706017D01*
X141836343Y-78706017D02*
X141722057Y-78706017D01*
X141722057Y-78706017D02*
X141676343Y-78728874D01*
X141676343Y-78728874D02*
X141653485Y-78751731D01*
X141653485Y-78751731D02*
X141630628Y-78797445D01*
X141630628Y-78797445D02*
X141630628Y-78843160D01*
X141630628Y-78843160D02*
X141653485Y-78911731D01*
X141653485Y-78911731D02*
X141927771Y-79186017D01*
X141927771Y-79186017D02*
X141630628Y-79186017D01*
X141219200Y-78706017D02*
X141310628Y-78706017D01*
X141310628Y-78706017D02*
X141356342Y-78728874D01*
X141356342Y-78728874D02*
X141379200Y-78751731D01*
X141379200Y-78751731D02*
X141424914Y-78820302D01*
X141424914Y-78820302D02*
X141447771Y-78911731D01*
X141447771Y-78911731D02*
X141447771Y-79094588D01*
X141447771Y-79094588D02*
X141424914Y-79140302D01*
X141424914Y-79140302D02*
X141402057Y-79163160D01*
X141402057Y-79163160D02*
X141356342Y-79186017D01*
X141356342Y-79186017D02*
X141264914Y-79186017D01*
X141264914Y-79186017D02*
X141219200Y-79163160D01*
X141219200Y-79163160D02*
X141196342Y-79140302D01*
X141196342Y-79140302D02*
X141173485Y-79094588D01*
X141173485Y-79094588D02*
X141173485Y-78980302D01*
X141173485Y-78980302D02*
X141196342Y-78934588D01*
X141196342Y-78934588D02*
X141219200Y-78911731D01*
X141219200Y-78911731D02*
X141264914Y-78888874D01*
X141264914Y-78888874D02*
X141356342Y-78888874D01*
X141356342Y-78888874D02*
X141402057Y-78911731D01*
X141402057Y-78911731D02*
X141424914Y-78934588D01*
X141424914Y-78934588D02*
X141447771Y-78980302D01*
X140899199Y-78911731D02*
X140944914Y-78888874D01*
X140944914Y-78888874D02*
X140967771Y-78866017D01*
X140967771Y-78866017D02*
X140990628Y-78820302D01*
X140990628Y-78820302D02*
X140990628Y-78797445D01*
X140990628Y-78797445D02*
X140967771Y-78751731D01*
X140967771Y-78751731D02*
X140944914Y-78728874D01*
X140944914Y-78728874D02*
X140899199Y-78706017D01*
X140899199Y-78706017D02*
X140807771Y-78706017D01*
X140807771Y-78706017D02*
X140762057Y-78728874D01*
X140762057Y-78728874D02*
X140739199Y-78751731D01*
X140739199Y-78751731D02*
X140716342Y-78797445D01*
X140716342Y-78797445D02*
X140716342Y-78820302D01*
X140716342Y-78820302D02*
X140739199Y-78866017D01*
X140739199Y-78866017D02*
X140762057Y-78888874D01*
X140762057Y-78888874D02*
X140807771Y-78911731D01*
X140807771Y-78911731D02*
X140899199Y-78911731D01*
X140899199Y-78911731D02*
X140944914Y-78934588D01*
X140944914Y-78934588D02*
X140967771Y-78957445D01*
X140967771Y-78957445D02*
X140990628Y-79003160D01*
X140990628Y-79003160D02*
X140990628Y-79094588D01*
X140990628Y-79094588D02*
X140967771Y-79140302D01*
X140967771Y-79140302D02*
X140944914Y-79163160D01*
X140944914Y-79163160D02*
X140899199Y-79186017D01*
X140899199Y-79186017D02*
X140807771Y-79186017D01*
X140807771Y-79186017D02*
X140762057Y-79163160D01*
X140762057Y-79163160D02*
X140739199Y-79140302D01*
X140739199Y-79140302D02*
X140716342Y-79094588D01*
X140716342Y-79094588D02*
X140716342Y-79003160D01*
X140716342Y-79003160D02*
X140739199Y-78957445D01*
X140739199Y-78957445D02*
X140762057Y-78934588D01*
X140762057Y-78934588D02*
X140807771Y-78911731D01*
X140442056Y-78911731D02*
X140487771Y-78888874D01*
X140487771Y-78888874D02*
X140510628Y-78866017D01*
X140510628Y-78866017D02*
X140533485Y-78820302D01*
X140533485Y-78820302D02*
X140533485Y-78797445D01*
X140533485Y-78797445D02*
X140510628Y-78751731D01*
X140510628Y-78751731D02*
X140487771Y-78728874D01*
X140487771Y-78728874D02*
X140442056Y-78706017D01*
X140442056Y-78706017D02*
X140350628Y-78706017D01*
X140350628Y-78706017D02*
X140304914Y-78728874D01*
X140304914Y-78728874D02*
X140282056Y-78751731D01*
X140282056Y-78751731D02*
X140259199Y-78797445D01*
X140259199Y-78797445D02*
X140259199Y-78820302D01*
X140259199Y-78820302D02*
X140282056Y-78866017D01*
X140282056Y-78866017D02*
X140304914Y-78888874D01*
X140304914Y-78888874D02*
X140350628Y-78911731D01*
X140350628Y-78911731D02*
X140442056Y-78911731D01*
X140442056Y-78911731D02*
X140487771Y-78934588D01*
X140487771Y-78934588D02*
X140510628Y-78957445D01*
X140510628Y-78957445D02*
X140533485Y-79003160D01*
X140533485Y-79003160D02*
X140533485Y-79094588D01*
X140533485Y-79094588D02*
X140510628Y-79140302D01*
X140510628Y-79140302D02*
X140487771Y-79163160D01*
X140487771Y-79163160D02*
X140442056Y-79186017D01*
X140442056Y-79186017D02*
X140350628Y-79186017D01*
X140350628Y-79186017D02*
X140304914Y-79163160D01*
X140304914Y-79163160D02*
X140282056Y-79140302D01*
X140282056Y-79140302D02*
X140259199Y-79094588D01*
X140259199Y-79094588D02*
X140259199Y-79003160D01*
X140259199Y-79003160D02*
X140282056Y-78957445D01*
X140282056Y-78957445D02*
X140304914Y-78934588D01*
X140304914Y-78934588D02*
X140350628Y-78911731D01*
X140053485Y-79003160D02*
X139687771Y-79003160D01*
X139459199Y-79186017D02*
X139459199Y-78706017D01*
X139459199Y-78706017D02*
X139276342Y-78706017D01*
X139276342Y-78706017D02*
X139230627Y-78728874D01*
X139230627Y-78728874D02*
X139207770Y-78751731D01*
X139207770Y-78751731D02*
X139184913Y-78797445D01*
X139184913Y-78797445D02*
X139184913Y-78866017D01*
X139184913Y-78866017D02*
X139207770Y-78911731D01*
X139207770Y-78911731D02*
X139230627Y-78934588D01*
X139230627Y-78934588D02*
X139276342Y-78957445D01*
X139276342Y-78957445D02*
X139459199Y-78957445D01*
D11*
X126513519Y-57441267D02*
X126710955Y-57159215D01*
X126851981Y-57441267D02*
X126851981Y-56848959D01*
X126851981Y-56848959D02*
X126626340Y-56848959D01*
X126626340Y-56848959D02*
X126569929Y-56877164D01*
X126569929Y-56877164D02*
X126541724Y-56905369D01*
X126541724Y-56905369D02*
X126513519Y-56961779D01*
X126513519Y-56961779D02*
X126513519Y-57046395D01*
X126513519Y-57046395D02*
X126541724Y-57102805D01*
X126541724Y-57102805D02*
X126569929Y-57131010D01*
X126569929Y-57131010D02*
X126626340Y-57159215D01*
X126626340Y-57159215D02*
X126851981Y-57159215D01*
D13*
%TO.C,R1*%
X162580000Y-57720000D02*
X172580000Y-57720000D01*
X162580000Y-62720000D02*
X162580000Y-57720000D01*
X172580000Y-57720000D02*
X172580000Y-62720000D01*
X172580000Y-62720000D02*
X162580000Y-62720000D01*
D14*
%TO.C,U1*%
X135330000Y-47820000D02*
X135330000Y-55820000D01*
X135330000Y-55820000D02*
X136530000Y-55820000D01*
X136530000Y-45120000D02*
X136530000Y-47820000D01*
X136530000Y-47820000D02*
X135330000Y-47820000D01*
X136530000Y-55820000D02*
X136530000Y-58520000D01*
X138530000Y-60720000D02*
X155530000Y-60720000D01*
X155530000Y-42920000D02*
X138530000Y-42920000D01*
X157530000Y-58520000D02*
X157530000Y-45120000D01*
X136530000Y-45120000D02*
G75*
G02*
X138530000Y-42920000I2099999J100001D01*
G01*
X138532324Y-60720000D02*
G75*
G02*
X136530000Y-58520000I98836J2101160D01*
G01*
X155530000Y-42920000D02*
G75*
G02*
X157530000Y-45120000I-99999J-2099999D01*
G01*
X157530000Y-58520000D02*
G75*
G02*
X155530000Y-60720000I-2100000J-100000D01*
G01*
D13*
%TO.C,U3*%
X144900000Y-75725000D02*
X144900000Y-78225000D01*
X144900000Y-78225000D02*
X147900000Y-78225000D01*
X147900000Y-75725000D02*
X144900000Y-75725000D01*
X147900000Y-78225000D02*
X147900000Y-75725000D01*
D15*
X148500000Y-76175000D02*
G75*
G02*
X148300000Y-76175000I-100000J0D01*
G01*
X148300000Y-76175000D02*
G75*
G02*
X148500000Y-76175000I100000J0D01*
G01*
D13*
%TO.C,R2*%
X121070000Y-58060000D02*
X131070000Y-58060000D01*
X121070000Y-63060000D02*
X121070000Y-58060000D01*
X131070000Y-58060000D02*
X131070000Y-63060000D01*
X131070000Y-63060000D02*
X121070000Y-63060000D01*
%TD*%
M02*
